<svg width="923" height="512" viewBox="0 0 923 512" fill="none" xmlns="http://www.w3.org/2000/svg">
<g clip-path="url(#clip0_140_2406)">
<rect width="923" height="512" fill="white"/>
<rect width="923.042" height="512" transform="translate(0 -0.000976562)" fill="#182632"/>
<rect x="399.884" y="84" width="124.232" height="124.232" rx="28.3959" fill="#EDD386"/>
<path d="M455.525 145.403H468.441V129.314L455.525 134.225V145.403Z" fill="#182632"/>
<path d="M468.441 158.24H455.525V172.771H468.441V158.24Z" fill="#182632"/>
<path d="M429.728 172.806H442.745V139.138L429.728 144.117V172.806Z" fill="#182632"/>
<path d="M481.151 172.806H494.271V119.425L481.151 124.438V172.806Z" fill="#182632"/>
<path d="M362.26 298.529V247.306H372.98V268.107H396.053V247.306H406.774V298.529H396.053V276.946H372.98V298.529H362.26ZM420.561 311.059C418.538 311.059 416.479 310.811 415.272 310.598V302.895C416.017 303.037 417.224 303.25 418.751 303.25C421.839 303.25 423.543 302.363 424.466 299.771L424.927 298.529L411.474 260.475H422.868L430.891 290.222H431.175L439.233 260.475H450.166L437.103 299.203C434.121 308.184 429.01 311.059 420.561 311.059ZM469.42 299.31C458.877 299.31 453.02 294.447 452.204 287.241L452.168 286.921H462.285L462.356 287.241C463.031 290.222 465.267 291.962 469.42 291.962C473.325 291.962 475.703 290.435 475.703 287.986V287.951C475.703 285.927 474.425 284.756 470.698 283.939L464.237 282.59C456.854 281.029 453.127 277.337 453.127 271.657V271.622C453.127 264.38 459.374 259.694 469.065 259.694C479.182 259.694 484.826 265.055 485.075 271.728V272.083H475.526L475.49 271.799C475.135 269.066 472.899 267.007 469.065 267.007C465.48 267.007 463.244 268.604 463.244 271.054V271.089C463.244 273.042 464.557 274.319 468.391 275.136L474.851 276.52C482.803 278.189 486.068 281.312 486.068 286.921V286.957C486.068 294.411 479.217 299.31 469.42 299.31ZM507.026 299.31C496.484 299.31 490.626 294.447 489.81 287.241L489.775 286.921H499.891L499.962 287.241C500.637 290.222 502.873 291.962 507.026 291.962C510.931 291.962 513.309 290.435 513.309 287.986V287.951C513.309 285.927 512.032 284.756 508.304 283.939L501.844 282.59C494.46 281.029 490.733 277.337 490.733 271.657V271.622C490.733 264.38 496.981 259.694 506.671 259.694C516.788 259.694 522.432 265.055 522.681 271.728V272.083H513.132L513.096 271.799C512.741 269.066 510.505 267.007 506.671 267.007C503.086 267.007 500.85 268.604 500.85 271.054V271.089C500.85 273.042 502.163 274.319 505.997 275.136L512.458 276.52C520.409 278.189 523.675 281.312 523.675 286.921V286.957C523.675 294.411 516.824 299.31 507.026 299.31ZM540.302 299.132C532.67 299.132 527.523 294.34 527.523 287.631V287.56C527.523 280.638 532.883 276.591 542.325 275.988L551.732 275.42V273.077C551.732 269.705 549.531 267.61 545.485 267.61C541.615 267.61 539.273 269.421 538.776 271.87L538.705 272.19H529.227L529.262 271.764C529.83 264.735 535.865 259.694 545.911 259.694C555.743 259.694 562.097 264.771 562.097 272.438V298.529H551.732V292.849H551.519C549.354 296.754 545.307 299.132 540.302 299.132ZM537.782 287.099C537.782 289.903 540.089 291.571 543.674 291.571C548.324 291.571 551.732 288.589 551.732 284.614V281.88L543.887 282.377C539.876 282.626 537.782 284.33 537.782 287.028V287.099Z" fill="white"/>
<rect x="262" y="337.826" width="400" height="90.1433" rx="21.2969" fill="#ECD385"/>
<path d="M395.793 395.897H390.93V378.289H390.785L383.699 395.644H380.264L373.177 378.289H373.032V395.897H368.169V369.81H374.497L381.909 388.305H382.054L389.466 369.81H395.793V395.897ZM415.687 393.638C413.963 395.421 411.625 396.313 408.672 396.313C405.719 396.313 403.381 395.415 401.658 393.62C399.934 391.824 399.073 389.347 399.073 386.189C399.073 383.068 399.94 380.609 401.676 378.813C403.423 377.006 405.756 376.102 408.672 376.102C411.601 376.102 413.933 377.006 415.669 378.813C417.404 380.609 418.272 383.068 418.272 386.189C418.272 389.359 417.41 391.842 415.687 393.638ZM408.672 392.282C409.974 392.282 411.004 391.751 411.764 390.691C412.523 389.63 412.903 388.136 412.903 386.207C412.903 384.303 412.523 382.815 411.764 381.742C411.004 380.669 409.974 380.133 408.672 380.133C407.371 380.133 406.334 380.669 405.563 381.742C404.803 382.815 404.424 384.303 404.424 386.207C404.424 388.136 404.803 389.63 405.563 390.691C406.322 391.751 407.358 392.282 408.672 392.282ZM432.615 396.205C431.217 396.205 429.988 395.885 428.927 395.247C427.879 394.608 427.083 393.716 426.541 392.571H426.432V395.897H421.226V369.81H426.505V379.88H426.613C427.156 378.723 427.945 377.825 428.981 377.186C430.018 376.536 431.223 376.21 432.597 376.21C435.044 376.21 436.966 377.096 438.364 378.868C439.774 380.639 440.479 383.086 440.479 386.207C440.479 389.317 439.78 391.764 438.382 393.547C436.984 395.319 435.062 396.205 432.615 396.205ZM430.789 380.44C429.512 380.44 428.475 380.971 427.68 382.031C426.884 383.092 426.487 384.484 426.487 386.207C426.487 387.955 426.878 389.353 427.662 390.402C428.457 391.438 429.5 391.956 430.789 391.956C432.115 391.956 433.158 391.444 433.917 390.42C434.688 389.383 435.074 387.979 435.074 386.207C435.074 384.448 434.688 383.05 433.917 382.013C433.146 380.965 432.103 380.44 430.789 380.44ZM443.415 395.897V376.517H448.694V395.897H443.415ZM448.061 373.589C447.519 374.119 446.85 374.384 446.055 374.384C445.259 374.384 444.59 374.119 444.048 373.589C443.506 373.058 443.235 372.414 443.235 371.654C443.235 370.883 443.506 370.238 444.048 369.72C444.59 369.19 445.259 368.925 446.055 368.925C446.85 368.925 447.519 369.19 448.061 369.72C448.604 370.238 448.875 370.883 448.875 371.654C448.875 372.414 448.604 373.058 448.061 373.589ZM452.444 395.897V369.81H457.723V395.897H452.444ZM470.077 380.007C468.932 380.007 467.974 380.398 467.203 381.182C466.444 381.965 466.016 382.965 465.919 384.183H474.145C474.085 382.941 473.681 381.935 472.934 381.164C472.199 380.392 471.246 380.007 470.077 380.007ZM474.217 389.968H479.062C478.773 391.872 477.821 393.409 476.206 394.578C474.603 395.735 472.608 396.313 470.222 396.313C467.245 396.313 464.907 395.421 463.208 393.638C461.52 391.854 460.677 389.407 460.677 386.298C460.677 383.2 461.52 380.73 463.208 378.886C464.895 377.03 467.167 376.102 470.023 376.102C472.831 376.102 475.067 376.981 476.73 378.741C478.393 380.501 479.225 382.857 479.225 385.81V387.419H465.865V387.744C465.865 389.13 466.269 390.257 467.076 391.125C467.896 391.98 468.975 392.408 470.312 392.408C471.277 392.408 472.108 392.191 472.807 391.758C473.506 391.312 473.976 390.715 474.217 389.968ZM507.026 395.897L505.037 389.57H495.872L493.883 395.897H488.279L497.336 369.81H503.754L512.829 395.897H507.026ZM500.391 374.8L497.047 385.484H503.862L500.518 374.8H500.391ZM526.468 376.21C528.926 376.21 530.861 377.096 532.271 378.868C533.693 380.639 534.404 383.086 534.404 386.207C534.404 389.317 533.705 391.764 532.307 393.547C530.909 395.319 528.993 396.205 526.558 396.205C525.172 396.205 523.949 395.891 522.888 395.265C521.84 394.626 521.056 393.752 520.538 392.643H520.429V402.225H515.151V376.517H520.357V379.898H520.466C520.996 378.741 521.779 377.837 522.816 377.186C523.864 376.536 525.082 376.21 526.468 376.21ZM524.696 391.956C526.01 391.956 527.052 391.438 527.823 390.402C528.607 389.365 528.999 387.967 528.999 386.207C528.999 384.448 528.607 383.05 527.823 382.013C527.052 380.965 526.01 380.44 524.696 380.44C523.406 380.44 522.37 380.971 521.586 382.031C520.803 383.08 520.411 384.472 520.411 386.207C520.411 387.955 520.797 389.353 521.568 390.402C522.352 391.438 523.394 391.956 524.696 391.956ZM548.549 376.21C551.007 376.21 552.942 377.096 554.352 378.868C555.774 380.639 556.485 383.086 556.485 386.207C556.485 389.317 555.786 391.764 554.388 393.547C552.99 395.319 551.073 396.205 548.639 396.205C547.253 396.205 546.03 395.891 544.969 395.265C543.92 394.626 543.137 393.752 542.619 392.643H542.51V402.225H537.232V376.517H542.438V379.898H542.547C543.077 378.741 543.86 377.837 544.897 377.186C545.945 376.536 547.163 376.21 548.549 376.21ZM546.777 391.956C548.091 391.956 549.133 391.438 549.904 390.402C550.688 389.365 551.08 387.967 551.08 386.207C551.08 384.448 550.688 383.05 549.904 382.013C549.133 380.965 548.091 380.44 546.777 380.44C545.487 380.44 544.451 380.971 543.667 382.031C542.884 383.08 542.492 384.472 542.492 386.207C542.492 387.955 542.878 389.353 543.649 390.402C544.433 391.438 545.475 391.956 546.777 391.956Z" fill="#182632"/>
</g>
<defs>
<clipPath id="clip0_140_2406">
<rect width="923" height="512" fill="white"/>
</clipPath>
</defs>
</svg>
