<svg width="511" height="511" viewBox="0 0 511 511" fill="none" xmlns="http://www.w3.org/2000/svg">
<rect width="510.579" height="510.579" fill="#0082FF"/>
<path fill-rule="evenodd" clip-rule="evenodd" d="M113.31 276.48C101.602 264.773 101.593 245.795 113.287 234.076L233.905 113.205C245.618 101.469 264.63 101.459 276.354 113.183L397.269 234.098C408.976 245.805 408.986 264.783 397.291 276.503L276.673 397.373C264.961 409.11 245.949 409.12 234.225 397.396L113.31 276.48ZM167.619 254.948C212.619 254.948 255.119 212.948 255.119 167.948C255.119 212.948 301.119 254.948 341.119 254.948C296.119 254.948 255.119 296.448 255.119 341.448C255.119 296.448 212.619 254.948 167.619 254.948Z" fill="white"/>
</svg>
