<svg width="512" height="512" viewBox="0 0 512 512" fill="none" xmlns="http://www.w3.org/2000/svg">
<rect width="512" height="512" fill="#FB5315"/>
<path d="M64 226.056C64 224.821 64.4635 224.03 65.3958 223.681C66.3229 223.321 67.5052 223.139 68.9375 223.139C70.6146 223.139 72.4583 223.274 74.4583 223.535C76.4583 223.8 78.3021 223.931 80 223.931C81.8594 223.931 83.5677 223.78 85.125 223.472C86.6771 223.155 88.1719 222.993 89.6042 222.993C91.1146 222.993 92.5104 223.42 93.7917 224.264C95.0833 225.113 96.2188 226.821 97.2083 229.389C97.2083 229.389 97.8438 231.368 99.125 235.326C100.417 239.285 102.083 244.196 104.125 250.056C104.844 252.014 105.562 252.014 106.271 250.056C108.396 244.196 110.083 239.285 111.333 235.326C112.583 231.368 113.208 229.389 113.208 229.389C114.177 226.821 115.281 225.113 116.521 224.264C117.771 223.42 119.109 222.993 120.542 222.993C121.776 222.993 123.062 223.155 124.396 223.472C125.729 223.78 127.109 223.931 128.542 223.931C130.318 223.931 132.177 223.8 134.125 223.535C136.083 223.274 137.906 223.139 139.604 223.139C141.115 223.139 142.318 223.321 143.208 223.681C144.094 224.03 144.542 224.821 144.542 226.056C144.542 227.222 144.318 228.118 143.875 228.743C143.427 229.358 142.896 230.024 142.271 230.743C141.646 231.451 141.109 232.587 140.667 234.139C140.219 235.696 140 238.03 140 241.139V273.389C140 276.504 140.219 278.863 140.667 280.472C141.109 282.071 141.646 283.254 142.271 284.014C142.896 284.764 143.427 285.384 143.875 285.868C144.318 286.358 144.542 287.087 144.542 288.056C144.542 289.389 144.026 290.28 143 290.722C141.969 291.165 140.708 291.389 139.208 291.389C137.594 291.389 135.88 291.254 134.062 290.993C132.24 290.728 130.667 290.597 129.333 290.597C128 290.597 126.422 290.728 124.604 290.993C122.781 291.254 121.068 291.389 119.458 291.389C117.958 291.389 116.693 291.165 115.667 290.722C114.635 290.28 114.125 289.389 114.125 288.056C114.125 287.087 114.344 286.358 114.792 285.868C115.234 285.384 115.771 284.764 116.396 284.014C117.021 283.254 117.552 282.071 118 280.472C118.443 278.863 118.667 276.504 118.667 273.389C118.667 271.795 118.667 269.66 118.667 266.993C118.667 264.326 118.646 261.467 118.604 258.41C118.562 255.342 118.542 252.295 118.542 249.264C118.542 246.238 118.542 243.613 118.542 241.389C118.542 241.222 118.401 241.05 118.125 240.868C117.859 240.691 117.635 240.821 117.458 241.264C116.844 243.222 115.938 245.962 114.729 249.472C113.531 252.972 112.219 256.837 110.792 261.056C109.375 265.28 107.906 269.571 106.396 273.931C104.88 278.295 103.505 282.295 102.271 285.931C101.646 287.889 101.021 289.295 100.396 290.139C99.7708 290.972 98.8385 291.389 97.6042 291.389C96.7135 291.389 95.9375 290.899 95.2708 289.931C94.6042 288.962 93.9583 287.629 93.3333 285.931C92 282.295 90.6146 278.321 89.1875 274.014C87.7708 269.696 86.3438 265.405 84.9167 261.139C83.5 256.863 82.2344 252.972 81.125 249.472C80.0104 245.962 79.1042 243.222 78.3958 241.264C78.3125 240.821 78.1094 240.691 77.7917 240.868C77.4844 241.05 77.3333 241.222 77.3333 241.389V273.389C77.3333 276.504 77.5521 278.905 78 280.597C78.4427 282.295 78.9792 283.566 79.6042 284.41C80.2292 285.243 80.7604 285.951 81.2083 286.535C81.651 287.108 81.875 287.884 81.875 288.868C81.875 289.842 81.6042 290.504 81.0625 290.847C80.5313 291.207 79.8646 291.389 79.0625 291.389C78.0885 291.389 77 291.254 75.7917 290.993C74.5938 290.728 73.5521 290.597 72.6667 290.597C71.776 290.597 70.7969 290.728 69.7292 290.993C68.6563 291.254 67.6354 291.389 66.6667 291.389C65.9583 291.389 65.3333 291.207 64.7917 290.847C64.2604 290.504 64 289.842 64 288.868C64 287.884 64.2187 287.108 64.6667 286.535C65.1094 285.951 65.6458 285.243 66.2708 284.41C66.8958 283.566 67.4271 282.295 67.875 280.597C68.3177 278.905 68.5417 276.504 68.5417 273.389V241.139C68.5417 238.03 68.3177 235.696 67.875 234.139C67.4271 232.587 66.8958 231.451 66.2708 230.743C65.6458 230.024 65.1094 229.358 64.6667 228.743C64.2187 228.118 64 227.222 64 226.056Z" fill="white"/>
<path d="M163.868 290.597C162.534 290.597 160.951 290.728 159.118 290.993C157.295 291.254 155.586 291.389 153.993 291.389C152.477 291.389 151.206 291.165 150.18 290.722C149.165 290.28 148.659 289.389 148.659 288.056C148.659 287.087 148.878 286.358 149.326 285.868C149.769 285.384 150.305 284.764 150.93 284.014C151.555 283.254 152.086 282.071 152.534 280.472C152.977 278.863 153.201 276.504 153.201 273.389C153.201 269.306 153.222 266.358 153.264 264.535C153.305 262.717 153.326 261.384 153.326 260.535C153.326 259.691 153.326 258.733 153.326 257.66C153.326 255.259 152.941 253.592 152.18 252.66C151.43 251.733 150.68 251.004 149.93 250.472C149.18 249.931 148.805 249.087 148.805 247.931C148.805 246.597 149.248 245.691 150.139 245.201C151.024 244.717 152.29 244.295 153.93 243.931C155.566 243.571 157.545 242.993 159.868 242.201C162.711 241.134 164.665 240.175 165.722 239.326C166.79 238.483 167.586 237.795 168.118 237.264C168.659 236.738 169.503 236.472 170.659 236.472C172.253 236.472 173.316 237.181 173.847 238.597C174.389 240.014 174.659 241.701 174.659 243.66V273.389C174.659 276.504 174.878 278.863 175.326 280.472C175.769 282.071 176.305 283.254 176.93 284.014C177.555 284.764 178.086 285.384 178.534 285.868C178.977 286.358 179.201 287.087 179.201 288.056C179.201 289.389 178.685 290.28 177.659 290.722C176.644 291.165 175.378 291.389 173.868 291.389C172.17 291.389 170.415 291.254 168.597 290.993C166.774 290.728 165.201 290.597 163.868 290.597ZM148.659 232.722C147.769 230.056 148.232 227.17 150.055 224.056C151.889 220.946 154.665 218.42 158.389 216.472C161.498 214.863 164.347 214.056 166.93 214.056C170.847 214.056 173.378 215.66 174.534 218.868C175.503 221.618 175.081 224.509 173.264 227.535C171.441 230.55 168.665 233.087 164.93 235.139C161.732 236.738 158.847 237.535 156.264 237.535C152.441 237.535 149.909 235.931 148.659 232.722Z" fill="white"/>
<path d="M182.795 288.056C182.795 287.087 183.014 286.358 183.462 285.868C183.905 285.384 184.441 284.764 185.066 284.014C185.691 283.254 186.222 282.072 186.67 280.473C187.113 278.863 187.337 276.504 187.337 273.389C187.337 269.306 187.358 266.358 187.4 264.535C187.441 262.717 187.462 261.384 187.462 260.535C187.462 259.691 187.462 258.733 187.462 257.66C187.462 255.259 187.077 253.592 186.316 252.66C185.566 251.733 184.806 251.004 184.045 250.473C183.295 249.931 182.92 249.087 182.92 247.931C182.92 246.598 183.363 245.691 184.254 245.202C185.139 244.717 186.405 244.296 188.045 243.931C189.696 243.572 191.681 242.993 194.004 242.202C196.837 241.134 198.785 240.176 199.858 239.327C200.926 238.483 201.722 237.796 202.254 237.264C202.795 236.738 203.639 236.473 204.795 236.473C206.389 236.473 207.452 237.181 207.983 238.598C208.525 240.014 208.795 241.702 208.795 243.66V244.723C208.795 245.973 209.014 246.598 209.462 246.598C209.905 246.598 210.613 246.092 211.587 245.077C212.571 244.051 213.842 242.868 215.4 241.535C216.952 240.202 218.816 239.03 220.983 238.014C223.16 236.988 225.634 236.473 228.4 236.473C232.577 236.473 235.733 237.363 237.858 239.139C239.993 240.921 241.441 243.139 242.191 245.806C242.952 248.473 243.337 251.181 243.337 253.931V273.389C243.337 276.504 243.556 278.863 244.004 280.473C244.446 282.072 244.972 283.254 245.587 284.014C246.212 284.764 246.743 285.384 247.191 285.868C247.634 286.358 247.858 287.087 247.858 288.056C247.858 289.389 247.472 290.28 246.712 290.723C245.962 291.165 244.967 291.389 243.733 291.389C242.483 291.389 241.03 291.254 239.379 290.993C237.738 290.728 236.17 290.598 234.67 290.598C233.238 290.598 232.009 290.66 230.983 290.785C229.967 290.921 228.884 291.082 227.733 291.264C225.952 291.441 224.509 291.046 223.4 290.077C222.285 289.092 221.733 287.712 221.733 285.931V264.056C221.733 259.796 221.285 256.551 220.4 254.327C219.509 252.108 217.905 250.993 215.587 250.993C213.545 250.993 211.9 252.046 210.65 254.139C209.41 256.223 208.795 260.509 208.795 266.993V273.389C208.795 276.504 209.014 278.863 209.462 280.473C209.905 282.072 210.441 283.254 211.066 284.014C211.691 284.764 212.222 285.384 212.67 285.868C213.113 286.358 213.337 287.087 213.337 288.056C213.337 289.389 212.821 290.28 211.795 290.723C210.764 291.165 209.504 291.389 208.004 291.389C206.306 291.389 204.551 291.254 202.733 290.993C200.91 290.728 199.337 290.598 198.004 290.598C196.67 290.598 195.087 290.728 193.254 290.993C191.431 291.254 189.722 291.389 188.129 291.389C186.613 291.389 185.342 291.165 184.316 290.723C183.301 290.28 182.795 289.389 182.795 288.056Z" fill="white"/>
<path d="M252.926 268.201C252.926 258.608 255.166 250.92 259.655 245.139C264.14 239.363 270.473 236.472 278.655 236.472C280.697 236.472 282.426 236.545 283.843 236.681C285.27 236.806 286.562 236.962 287.718 237.139V235.139C287.718 232.738 287.343 231.071 286.593 230.139C285.843 229.196 285.083 228.462 284.322 227.931C283.572 227.405 283.197 226.556 283.197 225.389C283.197 224.056 283.702 223.149 284.718 222.66C285.744 222.175 287.166 221.759 288.989 221.41C290.806 221.05 292.874 220.467 295.197 219.66C298.041 218.592 299.973 217.639 300.989 216.806C302.015 215.962 302.749 215.274 303.197 214.743C303.64 214.201 304.437 213.931 305.593 213.931C307.187 213.931 308.249 214.649 308.78 216.076C309.322 217.493 309.593 219.181 309.593 221.139V273.389C309.593 276.504 309.812 278.863 310.26 280.472C310.702 282.071 311.239 283.254 311.864 284.014C312.489 284.764 313.02 285.384 313.468 285.868C313.911 286.358 314.135 287.087 314.135 288.056C314.135 289.389 313.687 290.28 312.801 290.722C311.911 291.165 310.801 291.389 309.468 291.389C308.036 291.389 306.494 291.254 304.843 290.993C303.202 290.728 301.718 290.597 300.385 290.597C298.968 290.597 297.812 290.686 296.926 290.868C296.036 291.045 295.015 291.222 293.864 291.389C292.166 291.566 290.765 291.191 289.655 290.264C288.541 289.337 287.947 288.024 287.864 286.326C287.765 284.108 287.452 282.993 286.926 282.993C286.395 282.993 285.51 283.795 284.26 285.389C283.01 287.004 281.343 288.405 279.26 289.597C277.176 290.79 274.306 291.389 270.655 291.389C264.874 291.389 260.473 289.28 257.447 285.056C254.431 280.837 252.926 275.217 252.926 268.201ZM275.197 260.056C275.197 264.946 275.681 268.925 276.655 271.993C277.64 275.066 279.244 276.597 281.468 276.597C283.77 276.597 285.39 275.066 286.322 271.993C287.249 268.925 287.718 264.946 287.718 260.056C287.718 255.087 287.249 251.092 286.322 248.076C285.39 245.05 283.77 243.535 281.468 243.535C279.244 243.535 277.64 245.05 276.655 248.076C275.681 251.092 275.197 255.087 275.197 260.056Z" fill="white"/>
<path d="M333.065 290.597C331.732 290.597 330.149 290.728 328.315 290.993C326.492 291.254 324.784 291.389 323.19 291.389C321.675 291.389 320.404 291.165 319.378 290.722C318.362 290.28 317.857 289.389 317.857 288.056C317.857 287.087 318.076 286.358 318.524 285.868C318.966 285.384 319.503 284.764 320.128 284.014C320.753 283.254 321.284 282.071 321.732 280.472C322.175 278.863 322.399 276.504 322.399 273.389C322.399 270.379 322.399 266.868 322.399 262.868C322.399 258.868 322.419 254.889 322.461 250.931C322.503 246.972 322.524 243.55 322.524 240.66C322.524 237.774 322.524 235.931 322.524 235.139C322.524 232.738 322.138 231.071 321.378 230.139C320.628 229.196 319.867 228.462 319.107 227.931C318.357 227.405 317.982 226.556 317.982 225.389C317.982 224.056 318.425 223.149 319.315 222.66C320.201 222.175 321.466 221.759 323.107 221.41C324.758 221.05 326.742 220.467 329.065 219.66C331.899 218.592 333.847 217.639 334.919 216.806C335.987 215.962 336.784 215.274 337.315 214.743C337.857 214.201 338.701 213.931 339.857 213.931C341.451 213.931 342.513 214.649 343.044 216.076C343.586 217.493 343.857 219.181 343.857 221.139V273.389C343.857 276.504 344.076 278.863 344.524 280.472C344.966 282.071 345.503 283.254 346.128 284.014C346.753 284.764 347.284 285.384 347.732 285.868C348.175 286.358 348.399 287.087 348.399 288.056C348.399 289.389 347.883 290.28 346.857 290.722C345.826 291.165 344.565 291.389 343.065 291.389C341.367 291.389 339.612 291.254 337.794 290.993C335.972 290.728 334.399 290.597 333.065 290.597Z" fill="white"/>
<path d="M350.789 299.66C350.789 297.618 351.435 295.728 352.727 293.993C354.018 292.254 355.904 291.389 358.393 291.389C360.695 291.389 362.383 291.79 363.456 292.598C364.523 293.4 365.299 294.379 365.789 295.535C366.273 296.686 366.669 297.837 366.977 298.993C367.294 300.145 367.737 301.124 368.31 301.931C368.893 302.733 369.898 303.139 371.331 303.139C373.898 303.139 375.716 301.978 376.789 299.66C377.857 297.353 377.857 294.556 376.789 291.264C375.898 288.514 374.831 285.405 373.581 281.931C372.341 278.462 371.081 275.056 369.789 271.723C368.497 268.389 367.357 265.504 366.372 263.056C365.398 260.613 364.779 258.993 364.518 258.202C362.836 254.108 361.299 251.014 359.914 248.931C358.539 246.848 357.357 245.363 356.372 244.473C355.398 243.587 354.648 242.848 354.122 242.264C353.591 241.681 353.331 240.863 353.331 239.806C353.331 238.473 353.857 237.587 354.914 237.139C355.982 236.697 357.273 236.473 358.789 236.473C360.482 236.473 362.258 236.608 364.122 236.868C365.982 237.134 367.581 237.264 368.914 237.264C370.607 237.264 372.518 237.134 374.643 236.868C376.779 236.608 378.737 236.473 380.518 236.473C382.294 236.473 383.737 236.697 384.852 237.139C385.961 237.587 386.518 238.473 386.518 239.806C386.518 241.046 386.133 241.931 385.372 242.473C384.622 243.004 384.247 244.066 384.247 245.66C384.247 247.176 384.508 249.113 385.039 251.473C385.581 253.822 386.273 256.197 387.122 258.598C387.966 261.004 388.747 263.092 389.456 264.868C390.258 266.827 391.107 266.78 391.997 264.723C392.883 262.863 393.727 260.691 394.518 258.202C395.32 255.717 396.008 253.322 396.581 251.014C397.164 248.697 397.456 246.91 397.456 245.66C397.456 244.066 397.029 242.931 396.185 242.264C395.336 241.598 394.914 240.639 394.914 239.389C394.914 238.238 395.268 237.467 395.977 237.077C396.695 236.676 397.503 236.473 398.393 236.473C399.461 236.473 400.591 236.608 401.789 236.868C402.982 237.134 403.982 237.264 404.789 237.264C405.591 237.264 406.591 237.134 407.789 236.868C408.982 236.608 410.07 236.473 411.06 236.473C412.029 236.473 412.799 236.655 413.372 237.014C413.956 237.363 414.247 238.072 414.247 239.139C414.247 240.197 413.982 241.014 413.456 241.598C412.924 242.181 412.148 242.921 411.122 243.806C410.091 244.697 408.893 246.16 407.518 248.202C406.143 250.243 404.654 253.358 403.06 257.535C402.794 258.327 402.216 259.973 401.331 262.473C400.44 264.962 399.372 267.889 398.122 271.264C396.872 274.639 395.602 278.046 394.31 281.473C393.029 284.889 391.857 287.931 390.789 290.598C388.299 296.556 384.966 301.618 380.789 305.785C376.607 309.962 371.497 312.056 365.456 312.056C363.148 312.056 360.857 311.65 358.581 310.848C356.315 310.056 354.445 308.749 352.977 306.931C351.518 305.108 350.789 302.686 350.789 299.66Z" fill="white"/>
<path d="M374.799 211.696C374.841 211.769 374.919 211.863 375.029 211.988C375.143 212.113 375.268 212.269 375.404 212.446C375.544 212.613 375.69 212.795 375.841 212.988C375.997 213.186 376.154 213.374 376.32 213.551C376.477 213.717 376.607 213.879 376.716 214.03C376.831 214.186 376.924 214.311 377.008 214.405V213.821L376.841 212.051C376.841 211.832 376.831 211.613 376.799 211.405C376.773 211.196 376.753 211.009 376.737 210.842C376.727 210.676 376.711 210.54 376.695 210.426C376.685 210.316 376.685 210.254 376.695 210.238L378.987 207.634C378.997 207.624 379.018 207.592 379.049 207.551L379.091 207.509C379.174 207.441 379.237 207.436 379.279 207.488C379.305 207.519 379.326 207.561 379.341 207.613C379.352 207.67 379.352 207.749 379.341 207.842C379.352 207.967 379.367 208.155 379.383 208.405C379.393 208.644 379.409 208.905 379.424 209.196C379.451 209.488 379.471 209.795 379.487 210.113C379.513 210.42 379.534 210.707 379.549 210.967C379.56 211.233 379.576 211.462 379.591 211.655C379.602 211.837 379.602 211.957 379.591 212.009V212.676C379.56 213.134 379.518 213.717 379.466 214.426C379.716 214.441 379.971 214.462 380.237 214.488C380.497 214.504 380.758 214.509 381.008 214.509C381.258 214.509 381.477 214.519 381.674 214.53C381.867 214.545 382.029 214.551 382.154 214.551L385.779 214.905C385.831 214.905 385.883 214.9 385.924 214.884C385.966 214.874 386.008 214.858 386.049 214.842C386.091 214.832 386.122 214.821 386.154 214.821C386.18 214.811 386.206 214.811 386.237 214.821C386.247 214.853 386.268 214.905 386.299 214.988C386.284 215.061 386.263 215.165 386.237 215.301C386.206 215.441 386.164 215.603 386.112 215.78C386.07 215.946 386.018 216.129 385.966 216.321C385.909 216.519 385.846 216.696 385.779 216.863C385.721 217.03 385.664 217.186 385.612 217.321C385.555 217.462 385.497 217.551 385.445 217.592C385.362 217.676 385.242 217.728 385.091 217.738C384.935 217.738 384.727 217.733 384.466 217.717C384.216 217.691 383.904 217.65 383.529 217.592C383.154 217.525 382.701 217.457 382.174 217.384C381.883 217.358 381.591 217.321 381.299 217.28C381.008 217.238 380.737 217.196 380.487 217.155C380.237 217.113 380.013 217.087 379.82 217.071C379.622 217.045 379.451 217.025 379.299 217.009C379.299 217.066 379.299 217.124 379.299 217.176C379.31 217.233 379.32 217.29 379.32 217.342L381.424 219.946C381.451 220.004 381.471 220.051 381.487 220.092C381.513 220.134 381.518 220.186 381.508 220.238L380.466 222.342C380.435 222.384 380.393 222.457 380.341 222.551C380.299 222.65 380.247 222.728 380.195 222.78C380.122 222.837 380.055 222.863 379.987 222.863C379.93 222.863 379.862 222.832 379.779 222.759C379.596 222.525 379.346 222.217 379.029 221.842C378.711 221.457 378.357 221.025 377.966 220.551C377.565 220.066 377.122 219.54 376.633 218.967C376.148 218.4 375.648 217.795 375.133 217.155L373.008 214.613C372.956 214.561 372.914 214.509 372.883 214.467C372.841 214.415 372.815 214.374 372.799 214.342C372.773 214.301 372.758 214.269 372.758 214.238C372.758 214.196 372.773 214.15 372.799 214.092L374.279 211.78C374.32 211.712 374.372 211.644 374.424 211.571C374.482 211.53 374.539 211.519 374.591 211.53C374.648 211.545 374.716 211.603 374.799 211.696Z" fill="white"/>
<path d="M393.576 201.709C393.56 201.532 393.555 201.407 393.555 201.334C393.565 201.25 393.617 201.177 393.701 201.104L395.472 200.021C395.513 199.995 395.576 199.969 395.659 199.938C395.711 199.912 395.763 199.917 395.805 199.959C395.847 199.99 395.888 200.063 395.93 200.188C395.956 200.313 395.998 200.5 396.055 200.75C396.123 201 396.201 201.282 396.284 201.584C396.367 201.875 396.451 202.167 396.534 202.459C396.628 202.75 396.711 203.011 396.784 203.229L396.93 203.625C397.024 203.933 397.128 204.271 397.242 204.646C397.367 205.011 397.482 205.375 397.597 205.75C397.722 206.125 397.831 206.495 397.93 206.854C398.039 207.219 398.143 207.563 398.242 207.896L398.617 209.146C398.617 209.177 398.617 209.203 398.617 209.229C398.628 209.245 398.643 209.261 398.659 209.271L398.68 209.396C398.706 209.479 398.727 209.552 398.742 209.604C398.768 209.662 398.789 209.709 398.805 209.75C398.815 209.808 398.826 209.854 398.826 209.896C398.836 209.938 398.831 209.99 398.805 210.042C398.789 210.084 398.768 210.136 398.742 210.188C398.711 210.245 398.659 210.323 398.576 210.417C398.534 210.459 398.461 210.537 398.367 210.646C398.284 210.745 398.185 210.865 398.076 211C397.961 211.125 397.852 211.261 397.742 211.396C397.628 211.537 397.518 211.662 397.409 211.771C397.31 211.886 397.227 211.974 397.159 212.042C397.102 212.115 397.076 212.146 397.076 212.146L391.888 207.979L393.013 212.417C393.024 212.459 393.034 212.511 393.034 212.563C393.034 212.62 393.013 212.667 392.972 212.709C392.914 212.74 392.836 212.792 392.742 212.875C392.659 212.948 392.555 213.037 392.43 213.146C392.305 213.245 392.164 213.349 392.013 213.459C391.857 213.573 391.722 213.677 391.597 213.771C391.482 213.87 391.373 213.953 391.263 214.021C391.164 214.089 391.097 214.131 391.055 214.146C390.982 214.172 390.914 214.172 390.847 214.146C390.789 214.115 390.748 214.052 390.722 213.938C390.555 213.313 390.378 212.625 390.201 211.875C390.018 211.115 389.831 210.344 389.638 209.563C389.461 208.771 389.274 207.99 389.076 207.209C388.867 206.433 388.669 205.698 388.472 205C388.461 204.974 388.404 204.917 388.305 204.834C388.211 204.74 388.107 204.641 387.992 204.542C387.867 204.433 387.758 204.328 387.659 204.229C387.55 204.136 387.492 204.073 387.492 204.042C387.482 204 387.487 203.969 387.513 203.938C387.544 203.896 387.586 203.834 387.638 203.75L389.242 201.959C389.274 201.959 389.3 201.953 389.326 201.938C389.357 201.912 389.378 201.896 389.388 201.896C389.445 201.886 389.487 201.875 389.513 201.875C389.555 201.875 389.602 201.907 389.659 201.959L395.409 207.25L393.576 201.709Z" fill="white"/>
<path d="M407.936 205.585C407.879 205.949 407.863 206.33 407.895 206.731C407.921 207.121 407.999 207.476 408.124 207.793C408.259 208.116 408.467 208.392 408.749 208.627C409.025 208.851 409.384 208.996 409.832 209.064C410.176 209.095 410.488 209.064 410.77 208.981C411.061 208.897 411.311 208.783 411.52 208.627C411.728 208.46 411.915 208.262 412.082 208.022C412.249 207.788 412.384 207.538 412.499 207.272C412.608 206.996 412.697 206.72 412.77 206.439C412.853 206.163 412.905 205.892 412.936 205.627C412.988 205.252 412.999 204.892 412.957 204.543C412.915 204.184 412.811 203.856 412.645 203.564C412.488 203.272 412.28 203.033 412.02 202.835C411.754 202.627 411.426 202.496 411.04 202.439C410.749 202.397 410.462 202.413 410.186 202.481C409.921 202.554 409.676 202.668 409.457 202.835C409.233 203.002 409.04 203.199 408.874 203.418C408.707 203.642 408.551 203.877 408.415 204.127C408.29 204.366 408.186 204.616 408.103 204.877C408.03 205.127 407.978 205.366 407.936 205.585ZM408.603 211.502C407.822 211.377 407.15 211.116 406.582 210.731C406.009 210.34 405.551 209.877 405.207 209.335C404.874 208.783 404.645 208.168 404.52 207.502C404.395 206.824 404.379 206.121 404.478 205.397C404.603 204.58 404.822 203.845 405.145 203.189C405.478 202.538 405.884 201.981 406.374 201.522C406.874 201.054 407.436 200.679 408.061 200.397C408.686 200.121 409.353 199.949 410.061 199.877C410.113 199.877 410.165 199.835 410.207 199.752C410.259 199.658 410.311 199.554 410.353 199.439C410.395 199.33 410.436 199.226 410.478 199.127C410.53 199.033 410.592 198.991 410.665 199.002C411.65 199.252 412.525 199.564 413.29 199.939C414.051 200.314 414.676 200.772 415.165 201.314C415.65 201.856 415.983 202.502 416.165 203.252C416.358 204.002 416.379 204.887 416.228 205.897C416.129 206.564 415.957 207.179 415.707 207.731C415.467 208.288 415.171 208.788 414.811 209.231C414.447 209.679 414.04 210.059 413.582 210.377C413.124 210.694 412.624 210.949 412.082 211.147C411.551 211.34 410.988 211.465 410.395 211.522C409.796 211.59 409.197 211.585 408.603 211.502Z" fill="white"/>
<path d="M434.152 212.119C434.22 212.051 434.282 212.01 434.34 211.994C434.407 211.968 434.496 211.973 434.61 212.015L436.756 213.015C436.756 213.015 436.762 213.02 436.777 213.036C436.803 213.046 436.819 213.057 436.819 213.057C436.871 213.098 436.892 213.15 436.881 213.223C436.866 213.291 436.845 213.348 436.819 213.39C436.819 213.39 436.803 213.395 436.777 213.411C436.746 213.437 436.725 213.458 436.715 213.473L428.131 219.223C427.923 219.348 427.756 219.442 427.631 219.515C427.517 219.583 427.407 219.63 427.298 219.661C427.199 219.687 427.1 219.702 427.006 219.702C426.923 219.713 426.819 219.708 426.694 219.682C426.569 219.666 426.407 219.63 426.215 219.577C426.032 219.52 425.798 219.458 425.506 219.39C425.392 219.374 425.319 219.348 425.277 219.307C425.204 219.265 425.173 219.202 425.173 219.119C425.183 219.046 425.215 218.978 425.256 218.911L427.11 214.307L423.673 216.015C423.631 216.041 423.532 216.067 423.381 216.098C423.241 216.124 423.09 216.145 422.923 216.161C422.767 216.171 422.616 216.182 422.465 216.182C422.308 216.192 422.194 216.208 422.11 216.223C422.012 216.223 421.913 216.223 421.819 216.223C421.72 216.223 421.621 216.213 421.527 216.202C421.444 216.187 421.366 216.166 421.298 216.14C421.225 216.124 421.163 216.098 421.11 216.057C420.996 215.973 420.97 215.859 421.027 215.723L425.215 205.432C425.225 205.39 425.241 205.348 425.256 205.307C425.282 205.265 425.308 205.234 425.34 205.202C425.407 205.109 425.491 205.046 425.59 205.015C425.699 204.989 425.84 204.994 426.006 205.036C426.173 205.077 426.366 205.171 426.59 205.307C426.808 205.432 427.095 205.598 427.444 205.807C427.61 205.921 427.741 206.01 427.84 206.077C427.949 206.15 428.038 206.213 428.11 206.265C428.235 206.348 428.298 206.426 428.298 206.494C428.298 206.567 428.277 206.661 428.235 206.786L425.715 212.64L428.173 211.64L429.194 209.452C429.246 209.343 429.298 209.26 429.34 209.202C429.407 209.119 429.491 209.072 429.59 209.057C429.683 209.031 429.803 209.046 429.944 209.098C430.079 209.14 430.256 209.223 430.465 209.348C430.683 209.473 430.944 209.619 431.235 209.786C431.371 209.869 431.485 209.947 431.569 210.015C431.663 210.072 431.741 210.119 431.798 210.161C431.923 210.26 431.991 210.343 432.006 210.411C432.032 210.484 432.027 210.567 431.985 210.661L429.84 215.119L434.152 212.119Z" fill="white"/>
<path d="M443.148 224.49C443.033 224.532 442.898 224.594 442.731 224.678C442.564 224.745 442.377 224.813 442.169 224.886C441.971 224.954 441.778 225.021 441.585 225.094C441.387 225.162 441.2 225.224 441.023 225.282C440.856 225.349 440.71 225.412 440.585 225.469C440.471 225.521 440.403 225.558 440.377 225.573C440.07 225.683 439.783 225.787 439.523 225.886C439.273 225.995 439.012 226.094 438.752 226.178C438.502 226.271 438.241 226.37 437.981 226.469C437.715 226.579 437.408 226.688 437.064 226.803C436.731 226.928 436.366 227.063 435.981 227.219C435.59 227.386 435.137 227.573 434.627 227.782L436.335 230.532C436.403 230.641 436.465 230.745 436.523 230.844C436.564 230.938 436.575 231.011 436.564 231.053C436.549 231.105 436.502 231.146 436.419 231.178C436.403 231.188 436.387 231.198 436.377 231.198C436.361 231.198 436.325 231.198 436.273 231.198C436.215 231.209 436.132 231.219 436.023 231.219C435.924 231.23 435.783 231.261 435.606 231.303L435.085 231.365C434.903 231.391 434.736 231.412 434.585 231.428C434.445 231.454 434.314 231.454 434.189 231.428C434.064 231.396 433.95 231.344 433.856 231.261C433.757 231.178 433.669 231.073 433.585 230.948C433.512 230.834 433.439 230.698 433.356 230.532C433.273 230.375 433.169 230.188 433.044 229.969C432.929 229.761 432.814 229.532 432.689 229.282C432.564 229.032 432.424 228.771 432.273 228.511C432.148 228.245 432.012 227.98 431.877 227.719C431.736 227.469 431.606 227.219 431.481 226.969C431.366 226.73 431.257 226.511 431.148 226.303C431.033 226.105 430.945 225.954 430.877 225.844C430.82 225.719 430.794 225.62 430.794 225.553C430.783 225.495 430.794 225.459 430.835 225.448C430.887 225.417 430.965 225.391 431.064 225.365C431.174 225.349 431.304 225.334 431.46 225.323C431.611 225.323 431.762 225.323 431.919 225.323C432.07 225.323 432.221 225.323 432.377 225.323L435.002 224.282C435.429 224.115 435.877 223.948 436.335 223.782C436.794 223.605 437.236 223.422 437.669 223.24L439.585 222.448C440.044 222.271 440.377 222.136 440.585 222.053C440.794 221.959 440.898 221.907 440.898 221.907C440.991 221.865 441.07 221.834 441.127 221.803C441.179 221.777 441.231 221.761 441.273 221.761C441.314 221.75 441.346 221.756 441.377 221.782C441.419 221.797 441.45 221.823 441.481 221.865L443.273 224.032C443.314 224.073 443.346 224.131 443.377 224.198C443.403 224.256 443.408 224.303 443.398 224.344C443.382 224.375 443.335 224.407 443.252 224.448C443.236 224.464 443.221 224.469 443.21 224.469C443.195 224.469 443.174 224.48 443.148 224.49Z" fill="white"/>
<path d="M442.368 242.693C442.295 242.677 442.191 242.64 442.055 242.588C441.915 242.547 441.764 242.489 441.597 242.422C441.43 242.364 441.248 242.302 441.055 242.234C440.857 242.161 440.66 242.094 440.451 242.026C440.368 241.984 440.311 241.948 440.285 241.922C440.253 241.906 440.227 241.87 440.201 241.818C440.17 241.76 440.149 241.682 440.139 241.588C440.139 241.489 440.128 241.349 440.118 241.172L439.993 240.088L437.639 240.026L437.93 244.026L437.618 244.047C437.602 244.047 437.524 244.01 437.389 243.943C437.264 243.87 437.102 243.786 436.91 243.693C436.727 243.609 436.545 243.51 436.368 243.401C436.186 243.302 436.035 243.219 435.91 243.151C435.811 243.12 435.727 243.073 435.66 243.005C435.602 242.932 435.555 242.859 435.514 242.776C435.482 242.693 435.462 242.599 435.451 242.505C435.436 242.406 435.43 242.302 435.43 242.193C435.389 241.719 435.357 241.224 435.347 240.713C435.331 240.213 435.326 239.713 435.326 239.213C435.316 238.713 435.316 238.219 435.326 237.734C435.326 237.245 435.331 236.797 435.347 236.38C435.347 236.349 435.357 236.323 435.389 236.297C435.43 236.265 435.477 236.255 435.535 236.255C435.535 236.224 435.576 236.234 435.66 236.276C435.743 236.318 435.857 236.37 436.014 236.443C436.165 236.526 436.331 236.609 436.514 236.693C436.706 236.786 436.899 236.885 437.097 236.984H438.847C439.139 236.984 439.352 236.984 439.493 236.984C439.628 236.984 439.706 236.984 439.722 236.984C439.722 236.661 439.722 236.427 439.722 236.276C439.732 236.12 439.79 236.036 439.889 236.026C439.93 236.026 440.003 236.057 440.118 236.13C440.243 236.198 440.378 236.281 440.535 236.38C440.701 236.474 440.868 236.578 441.035 236.693C441.201 236.802 441.357 236.901 441.514 236.984H444.18V236.963C444.165 236.838 444.149 236.724 444.139 236.63C444.123 236.547 444.107 236.463 444.097 236.38C444.081 236.13 444.081 235.948 444.097 235.838C444.123 235.739 444.18 235.693 444.264 235.693C444.305 235.677 444.378 235.698 444.493 235.755C444.618 235.807 444.753 235.88 444.91 235.963C445.076 236.047 445.243 236.13 445.41 236.213C445.576 236.307 445.727 236.39 445.868 236.463L446.722 236.88L446.951 240.13L447.514 243.943C447.514 243.953 447.514 243.969 447.514 243.984C447.514 244.01 447.503 244.036 447.493 244.068C447.493 244.109 447.472 244.135 447.43 244.151C447.399 244.177 447.357 244.193 447.305 244.193L446.889 244.13C446.764 244.088 446.639 244.047 446.514 244.005C446.389 243.974 446.248 243.927 446.097 243.859L445.18 243.609C445.081 243.568 445.003 243.515 444.951 243.463C444.91 243.422 444.878 243.328 444.868 243.193C444.837 242.802 444.79 242.364 444.722 241.88C444.649 241.39 444.587 240.828 444.535 240.193C444.451 240.177 444.389 240.172 444.347 240.172C444.305 240.182 444.222 240.182 444.097 240.172H443.743C443.576 240.172 443.389 240.161 443.18 240.151C442.982 240.151 442.748 240.14 442.472 240.13C442.514 240.39 442.54 240.651 442.555 240.901C442.581 241.161 442.607 241.401 442.639 241.609C442.665 241.818 442.686 241.995 442.701 242.151C442.712 242.302 442.722 242.406 442.722 242.463C442.732 242.505 442.722 242.552 442.68 242.609C442.649 242.661 442.597 242.698 442.514 242.713C442.472 242.713 442.42 242.703 442.368 242.693Z" fill="white"/>
<path d="M434.968 248.703C435.01 248.646 435.062 248.609 435.114 248.599C435.171 248.599 435.229 248.604 435.281 248.619C435.312 248.63 435.338 248.661 435.364 248.703L436.739 250.265C436.765 250.265 436.843 250.297 436.968 250.369C437.093 250.437 437.244 250.515 437.427 250.599C437.619 250.682 437.833 250.776 438.072 250.89C438.307 251.015 438.541 251.13 438.781 251.244C439.015 251.354 439.239 251.458 439.447 251.557C439.656 251.651 439.828 251.734 439.968 251.807C440.036 251.817 440.125 251.854 440.239 251.911C440.348 251.979 440.479 252.041 440.635 252.099C440.786 252.166 440.947 252.244 441.114 252.328C441.291 252.411 441.468 252.5 441.635 252.599L443.135 253.265C443.145 253.125 443.166 252.979 443.197 252.828C443.223 252.687 443.25 252.541 443.281 252.39C443.307 252.234 443.333 252.099 443.364 251.974C443.39 251.859 443.416 251.765 443.447 251.682C443.473 251.625 443.515 251.588 443.572 251.578C443.625 251.562 443.677 251.562 443.718 251.578C443.786 251.604 443.833 251.64 443.864 251.682L444.885 254.203C444.953 254.411 445 254.599 445.031 254.765C445.057 254.942 445.057 255.146 445.031 255.369C445 255.604 444.937 255.875 444.843 256.182C444.744 256.5 444.604 256.896 444.427 257.369C444.119 258.172 443.765 258.854 443.364 259.411C442.958 259.963 442.531 260.39 442.072 260.682C441.723 260.916 441.375 261.109 441.031 261.265C440.697 261.416 440.354 261.526 440.01 261.599C439.661 261.666 439.291 261.672 438.906 261.619C438.531 261.578 438.119 261.474 437.677 261.307C436.843 260.984 436.156 260.578 435.614 260.078C435.062 259.588 434.625 259.041 434.302 258.432C433.984 257.817 433.77 257.161 433.656 256.453C433.531 255.755 433.489 255.041 433.531 254.307C433.562 253.583 433.656 252.854 433.822 252.119C433.989 251.396 434.208 250.692 434.468 250.015L434.968 248.703ZM442.156 256.286L441.322 255.89C441.015 255.724 440.697 255.557 440.364 255.39C440.031 255.224 439.682 255.062 439.322 254.911C438.973 254.755 438.635 254.599 438.302 254.432C437.979 254.265 437.666 254.109 437.364 253.974C437.072 253.833 436.807 253.708 436.572 253.599C436.333 253.484 436.156 253.396 436.031 253.328L435.822 253.203C435.604 253.797 435.51 254.333 435.552 254.807C435.593 255.291 435.729 255.724 435.947 256.099C436.182 256.484 436.5 256.817 436.906 257.099C437.307 257.39 437.765 257.64 438.281 257.849C438.64 257.984 439.015 258.062 439.406 258.078C439.791 258.104 440.177 258.083 440.552 258.015C440.953 257.942 441.281 257.791 441.531 257.557C441.791 257.333 441.994 257.041 442.135 256.682C442.145 256.64 442.156 256.578 442.156 256.494C442.156 256.411 442.156 256.338 442.156 256.286Z" fill="white"/>
<path d="M432.409 265.779C432.81 266.222 433.144 266.696 433.409 267.196C433.685 267.696 433.889 268.201 434.014 268.717C434.139 269.243 434.201 269.769 434.201 270.3C434.201 270.842 434.123 271.363 433.972 271.863C433.831 272.363 433.618 272.847 433.326 273.321C433.045 273.79 432.701 274.222 432.284 274.613C431.935 274.915 431.607 275.16 431.305 275.342C431.014 275.535 430.743 275.68 430.493 275.779C430.243 275.873 430.014 275.946 429.805 275.988C429.597 276.029 429.42 276.05 429.264 276.05C429.264 276.05 429.258 276.04 429.243 276.029C429.191 275.956 429.092 275.847 428.951 275.696C428.8 275.555 428.633 275.394 428.451 275.217C428.258 275.05 428.066 274.868 427.868 274.675C427.675 274.493 427.524 274.331 427.409 274.196C427.383 274.165 427.362 274.134 427.347 274.092C427.336 274.05 427.362 273.998 427.43 273.946C427.472 273.915 427.529 273.884 427.597 273.842C427.68 273.785 427.826 273.743 428.034 273.717C428.232 273.686 428.451 273.644 428.701 273.592C428.941 273.55 429.196 273.467 429.472 273.342C429.748 273.227 430.003 273.061 430.243 272.842C430.56 272.561 430.784 272.238 430.909 271.863C431.045 271.498 431.097 271.118 431.055 270.717C431.024 270.311 430.909 269.894 430.701 269.467C430.503 269.05 430.232 268.654 429.889 268.279C429.597 267.946 429.295 267.66 428.972 267.425C428.639 267.186 428.316 267.019 427.993 266.925C427.659 266.826 427.347 266.8 427.055 266.842C426.753 266.884 426.482 267.014 426.243 267.238C425.993 267.456 425.764 267.769 425.555 268.175L426.159 269.092L427.243 268.092C427.592 268.634 427.862 269.061 428.055 269.384C428.237 269.717 428.362 269.967 428.43 270.134C428.487 270.311 428.503 270.446 428.472 270.529C428.446 270.623 428.399 270.706 428.326 270.779L425.284 273.55C425.201 273.634 425.133 273.686 425.076 273.717C425.024 273.743 424.967 273.717 424.909 273.634C424.883 273.602 424.847 273.561 424.805 273.509C424.764 273.451 424.722 273.384 424.68 273.3L424.097 272.071C424.003 271.915 423.93 271.8 423.889 271.717C423.847 271.634 423.836 271.555 423.847 271.488C423.847 271.415 423.878 271.347 423.93 271.279C423.987 271.222 424.071 271.139 424.18 271.029C424.253 270.972 424.274 270.915 424.243 270.863C424.201 270.805 424.159 270.743 424.118 270.675C423.993 270.493 423.862 270.305 423.722 270.113C423.586 269.93 423.467 269.759 423.368 269.592C423.258 269.425 423.17 269.269 423.097 269.134C423.014 269.009 422.961 268.91 422.93 268.842C423.055 268.425 423.17 268.061 423.264 267.759C423.347 267.451 423.467 267.16 423.618 266.884C423.758 266.602 423.925 266.331 424.118 266.071C424.316 265.805 424.566 265.535 424.868 265.259C425.409 264.759 426.008 264.394 426.659 264.175C427.316 263.951 427.972 263.852 428.639 263.884C429.305 263.925 429.961 264.097 430.618 264.404C431.269 264.722 431.868 265.18 432.409 265.779Z" fill="white"/>
<path d="M412.678 279.095C412.694 279.022 412.709 278.912 412.72 278.761C412.735 278.621 412.756 278.459 412.782 278.282C412.798 278.1 412.819 277.907 412.845 277.699C412.876 277.501 412.886 277.303 412.886 277.095C412.918 276.996 412.938 276.928 412.949 276.886C412.949 276.855 412.98 276.824 413.032 276.782C413.09 276.741 413.168 276.704 413.261 276.678C413.345 276.647 413.47 276.605 413.636 276.553L414.678 276.178L414.157 273.866L410.345 275.074L410.261 274.761C410.251 274.746 410.272 274.662 410.324 274.511C410.366 274.371 410.407 274.199 410.449 273.991C410.491 273.793 410.543 273.6 410.595 273.407C410.636 273.209 410.688 273.043 410.741 272.907C410.756 272.793 410.782 272.704 410.824 272.636C410.866 272.563 410.928 272.501 411.011 272.449C411.084 272.407 411.168 272.366 411.261 272.324C411.345 272.282 411.444 272.246 411.553 272.22C412.001 272.079 412.47 271.938 412.97 271.803C413.459 271.678 413.944 271.553 414.428 271.428C414.918 271.303 415.397 271.183 415.866 271.074C416.34 270.959 416.782 270.866 417.199 270.782C417.23 270.782 417.261 270.787 417.303 270.803C417.334 270.829 417.355 270.871 417.366 270.928C417.397 270.928 417.402 270.97 417.386 271.053C417.36 271.147 417.324 271.282 417.282 271.449C417.241 271.616 417.199 271.793 417.157 271.991C417.116 272.199 417.069 272.407 417.011 272.616L417.428 274.324C417.511 274.6 417.569 274.808 417.595 274.949C417.626 275.1 417.636 275.183 417.636 275.199C417.959 275.116 418.194 275.058 418.345 275.032C418.48 275.001 418.574 275.037 418.616 275.136C418.616 275.178 418.595 275.261 418.553 275.386C418.511 275.511 418.459 275.662 418.407 275.845C418.35 276.022 418.293 276.209 418.22 276.407C418.152 276.6 418.095 276.767 418.053 276.907L418.678 279.511V279.491C418.803 279.449 418.897 279.412 418.97 279.386C419.053 279.355 419.136 279.329 419.22 279.303C419.454 279.22 419.626 279.178 419.741 279.178C419.85 279.178 419.918 279.22 419.949 279.303C419.959 279.345 419.954 279.418 419.928 279.532C419.897 279.657 419.866 279.803 419.824 279.97C419.793 280.147 419.751 280.329 419.699 280.511C419.642 280.704 419.6 280.876 419.574 281.032L419.366 281.97L416.241 282.949L412.678 284.366C412.668 284.376 412.652 284.386 412.636 284.386C412.61 284.386 412.584 284.386 412.553 284.386C412.511 284.386 412.48 284.371 412.449 284.345C412.407 284.313 412.381 284.272 412.366 284.22L412.345 283.803C412.36 283.678 412.376 283.543 412.386 283.407C412.386 283.282 412.397 283.136 412.407 282.97L412.47 282.032C412.47 281.918 412.491 281.834 412.532 281.782C412.563 281.741 412.652 281.683 412.803 281.616C413.168 281.501 413.574 281.355 414.032 281.178C414.491 281.011 415.022 280.824 415.616 280.616C415.616 280.517 415.61 280.449 415.595 280.407C415.584 280.376 415.563 280.303 415.532 280.178L415.47 279.824C415.428 279.657 415.386 279.475 415.345 279.282C415.303 279.1 415.256 278.876 415.199 278.616C414.949 278.699 414.709 278.782 414.47 278.866C414.22 278.959 414.001 279.043 413.803 279.116C413.61 279.183 413.444 279.241 413.303 279.282C413.152 279.324 413.053 279.355 413.011 279.386C412.97 279.386 412.918 279.376 412.845 279.366C412.777 279.366 412.735 279.324 412.72 279.241C412.709 279.199 412.694 279.147 412.678 279.095Z" fill="white"/>
</svg>
