<svg width="512" height="512" viewBox="0 0 512 512" fill="none" xmlns="http://www.w3.org/2000/svg">
<rect width="512" height="512" fill="#FEDD2A"/>
<g opacity="0.07">
<path d="M344.969 435.173C333.116 435.196 321.375 432.876 310.42 428.348C299.466 423.819 289.515 417.17 281.138 408.784C277.753 405.399 275.851 400.808 275.851 396.021C275.851 391.234 277.753 386.643 281.138 383.258C284.522 379.873 289.113 377.972 293.9 377.972C298.687 377.972 303.278 379.873 306.663 383.258C311.689 388.298 317.66 392.298 324.233 395.028C330.807 397.759 337.854 399.167 344.972 399.172C352.09 399.177 359.139 397.779 365.716 395.058C372.293 392.336 378.269 388.345 383.303 383.312C388.336 378.279 392.328 372.303 395.05 365.727C397.772 359.15 399.171 352.101 399.167 344.983C399.163 337.865 397.756 330.818 395.026 324.244C392.296 317.67 388.297 311.699 383.258 306.672C381.582 304.996 380.252 303.007 379.345 300.817C378.438 298.627 377.971 296.28 377.971 293.91C377.971 291.539 378.438 289.192 379.345 287.002C380.252 284.813 381.582 282.823 383.258 281.147C386.642 277.762 391.233 275.86 396.02 275.86C398.391 275.86 400.738 276.327 402.927 277.234C405.117 278.141 407.107 279.471 408.783 281.147C421.411 293.763 430.013 309.841 433.499 327.348C436.985 344.855 435.199 363.002 428.367 379.493C421.534 395.984 409.963 410.077 395.117 419.989C380.272 429.901 362.819 435.185 344.969 435.173Z" fill="#020202" stroke="white"/>
<path d="M167.03 435.173C149.182 435.181 131.732 429.895 116.888 419.983C102.045 410.07 90.4757 395.978 83.644 379.488C76.8123 362.999 75.0253 344.853 78.5093 327.348C81.9933 309.843 90.5916 293.764 103.216 281.147L141.117 243.238C144.509 239.888 149.088 238.016 153.856 238.031C158.623 238.046 163.191 239.947 166.562 243.317C169.933 246.688 171.833 251.256 171.848 256.023C171.864 260.791 169.992 265.37 166.642 268.762L128.742 306.673C118.62 316.837 112.943 330.601 112.958 344.946C112.974 359.291 118.679 373.043 128.823 383.186C138.967 393.329 152.72 399.032 167.065 399.046C181.409 399.06 195.173 393.382 205.336 383.258L243.237 345.349C246.626 341.983 251.211 340.097 255.987 340.105C260.764 340.113 265.342 342.014 268.719 345.392C272.097 348.769 273.998 353.348 274.006 358.124C274.014 362.901 272.128 367.486 268.762 370.874L230.861 408.784C222.484 417.17 212.533 423.819 201.579 428.348C190.625 432.876 178.884 435.196 167.03 435.173Z" fill="#020202" stroke="white"/>
<path d="M115.979 236.142C113.608 236.144 111.26 235.679 109.07 234.771C106.88 233.863 104.891 232.532 103.217 230.853C86.362 213.911 76.9142 190.976 76.9454 167.079C76.9766 143.181 86.4841 120.271 103.383 103.373C120.282 86.4755 143.192 76.9695 167.09 76.94C190.988 76.9105 213.922 86.3599 230.862 103.216C232.538 104.892 233.868 106.882 234.775 109.071C235.682 111.261 236.149 113.609 236.149 115.979C236.149 118.349 235.682 120.696 234.775 122.886C233.868 125.076 232.539 127.066 230.862 128.742C229.186 130.418 227.197 131.748 225.007 132.655C222.817 133.562 220.47 134.029 218.099 134.029C215.729 134.029 213.382 133.562 211.192 132.655C209.002 131.748 207.012 130.418 205.336 128.742C200.311 123.696 194.34 119.691 187.766 116.956C181.191 114.22 174.141 112.808 167.02 112.801C159.899 112.793 152.846 114.19 146.265 116.912C139.685 119.633 133.705 123.626 128.669 128.661C123.634 133.696 119.64 139.675 116.918 146.255C114.196 152.835 112.798 159.888 112.805 167.009C112.812 174.13 114.223 181.18 116.957 187.756C119.692 194.331 123.697 200.302 128.742 205.328C131.266 207.852 132.984 211.068 133.68 214.569C134.377 218.07 134.019 221.699 132.653 224.997C131.287 228.295 128.974 231.114 126.006 233.098C123.039 235.081 119.549 236.141 115.979 236.142Z" fill="#020202" stroke="white"/>
<path d="M358.12 274.051C354.55 274.05 351.061 272.991 348.093 271.008C345.125 269.024 342.812 266.205 341.446 262.907C340.08 259.609 339.723 255.98 340.419 252.479C341.115 248.978 342.834 245.762 345.358 243.238L383.258 205.328C393.414 195.171 399.119 181.395 399.118 167.032C399.118 152.668 393.411 138.893 383.254 128.737C373.097 118.582 359.321 112.876 344.957 112.877C330.594 112.878 316.819 118.585 306.663 128.742L268.762 166.651C265.37 170.001 260.79 171.873 256.023 171.857C251.256 171.842 246.688 169.942 243.317 166.571C239.946 163.2 238.046 158.632 238.031 153.865C238.016 149.097 239.888 144.518 243.237 141.126L281.138 103.216C289.511 94.7999 299.462 88.1182 310.422 83.5537C321.381 78.9893 333.133 76.6318 345.005 76.6163C356.877 76.6008 368.635 78.9276 379.607 83.4635C390.578 87.9993 400.547 94.6551 408.942 103.049C417.337 111.444 423.993 121.412 428.53 132.383C433.066 143.354 435.394 155.112 435.379 166.984C435.365 178.856 433.008 190.608 428.444 201.568C423.881 212.528 417.199 222.48 408.784 230.853L370.883 268.762C369.209 270.441 367.219 271.773 365.029 272.68C362.839 273.588 360.491 274.054 358.12 274.051Z" fill="#020202" stroke="white"/>
<path d="M256.264 376.427C253.893 376.43 251.545 375.964 249.355 375.056C247.165 374.149 245.176 372.817 243.502 371.138L141.046 268.684C139.37 267.008 138.04 265.018 137.132 262.828C136.225 260.639 135.758 258.291 135.758 255.921C135.758 253.55 136.225 251.203 137.132 249.013C138.04 246.824 139.37 244.834 141.046 243.158L243.166 141.047C244.842 139.37 246.832 138.04 249.022 137.133C251.211 136.225 253.559 135.758 255.929 135.758C258.3 135.758 260.647 136.225 262.837 137.133C265.027 138.04 267.016 139.37 268.692 141.047L371.147 243.502C372.823 245.178 374.153 247.167 375.061 249.357C375.968 251.547 376.435 253.894 376.435 256.265C376.435 258.635 375.968 260.982 375.061 263.172C374.153 265.362 372.823 267.352 371.147 269.027L269.027 371.139C267.353 372.818 265.363 374.149 263.173 375.057C260.983 375.964 258.635 376.43 256.264 376.427ZM179.335 255.921L256.264 332.85L332.858 256.265L255.929 179.335L179.335 255.921Z" fill="#020202" stroke="white"/>
</g>
<path d="M149.662 214.718V161.477H362.338V214.718H286.04V358.4H226.083V214.718H149.662Z" fill="#020202"/>
</svg>
