<svg width="2025" height="600" viewBox="0 0 2025 600" fill="none" xmlns="http://www.w3.org/2000/svg">
<path d="M2011.57 529.165C2011.57 536.717 2010.08 544.194 2007.18 551.17C2004.29 558.146 2000.05 564.484 1994.71 569.821C1989.36 575.158 1983.02 579.39 1976.04 582.274C1969.06 585.158 1961.58 586.639 1954.02 586.631H70.9733C55.7111 586.647 41.0674 580.602 30.2627 569.826C19.458 559.049 13.3771 544.424 13.3572 529.165V70.8943C13.3771 55.6293 19.4556 40.996 30.2581 30.2076C41.0607 19.4192 55.7042 13.3575 70.9733 13.3535H1954.01C1961.57 13.3535 1969.05 14.842 1976.03 17.7338C1983.02 20.6257 1989.36 24.8644 1994.7 30.2077C2000.05 35.5511 2004.28 41.8945 2007.17 48.8756C2010.07 55.8566 2011.55 63.3387 2011.55 70.8943L2011.57 529.165Z" fill="white"/>
<path d="M1954.02 600H70.9733C52.172 599.996 34.1402 592.536 20.8344 579.256C7.52861 565.976 0.0357737 547.962 0 529.166L0 70.9095C0.0278138 52.1039 7.5157 34.0771 20.821 20.7837C34.1264 7.49034 52.1627 0.0158727 70.9733 0L1954.01 0C1972.82 0.0237927 1990.85 7.5008 2004.15 20.7925C2017.46 34.0841 2024.95 52.1063 2024.98 70.9095V529.166C2025.01 568.236 1993.12 600 1954.02 600Z" fill="#A6A6A6"/>
<path d="M2011.57 529.165C2011.57 536.717 2010.08 544.194 2007.18 551.17C2004.29 558.146 2000.05 564.484 1994.71 569.821C1989.36 575.158 1983.02 579.39 1976.04 582.274C1969.06 585.158 1961.58 586.639 1954.02 586.631H70.9733C55.7111 586.647 41.0674 580.602 30.2627 569.826C19.458 559.049 13.3771 544.424 13.3572 529.165V70.8943C13.3771 55.6293 19.4556 40.996 30.2581 30.2076C41.0607 19.4192 55.7042 13.3575 70.9733 13.3535H1954.01C1961.57 13.3535 1969.05 14.842 1976.03 17.7338C1983.02 20.6257 1989.36 24.8644 1994.7 30.2077C2000.05 35.5511 2004.28 41.8945 2007.17 48.8756C2010.07 55.8566 2011.55 63.3387 2011.55 70.8943L2011.57 529.165Z" fill="black"/>
<path d="M452.164 296.842C451.729 248.484 491.77 224.957 493.601 223.862C470.924 190.808 435.775 186.292 423.424 185.931C393.903 182.826 365.267 203.591 350.229 203.591C334.891 203.591 311.733 186.232 286.775 186.742C254.657 187.237 224.611 205.827 208.132 234.695C174.124 293.556 199.488 380.055 232.07 427.633C248.369 450.949 267.414 476.951 292.343 476.036C316.731 475.046 325.841 460.507 355.272 460.507C384.432 460.507 392.987 476.036 418.411 475.451C444.585 475.046 461.064 452.045 476.792 428.533C495.627 401.841 503.192 375.524 503.492 374.173C502.891 373.963 452.674 354.788 452.164 296.842ZM404.138 154.633C417.255 138.233 426.23 115.922 423.739 93.281C404.753 94.1212 381.011 106.41 367.338 122.449C355.242 136.583 344.436 159.749 347.227 181.535C368.554 183.126 390.451 170.777 404.138 154.633Z" fill="white"/>
<path d="M1954.02 0H945.405L1340.46 600H1954.02C1972.83 599.984 1990.86 592.514 2004.17 579.227C2017.47 565.94 2024.96 547.921 2025 529.12V70.9095C2024.97 52.1051 2017.48 34.0806 2004.17 20.7881C1990.87 7.49557 1972.83 0.0198342 1954.02 0Z" fill="url(#paint0_linear_47_514)"/>
<path d="M805.41 472.69H771.326L752.656 414.039H687.761L669.977 472.69H636.794L701.103 273.015H740.815L805.41 472.69ZM747.028 389.432L730.144 337.293C728.358 331.966 724.996 319.423 720.074 299.677H719.473C717.492 308.17 714.326 320.713 709.988 337.293L693.389 389.432H747.028ZM970.469 398.929C970.469 423.416 963.82 442.772 950.508 456.98C938.592 469.629 923.779 475.946 906.114 475.946C887.039 475.946 873.321 469.149 864.992 455.525V531.071H832.995V376.033C832.995 360.654 832.589 344.885 831.809 328.71H859.949L861.735 351.531H862.335C873.006 334.337 889.2 325.739 910.932 325.739C927.921 325.739 942.103 332.446 953.45 345.875C964.781 359.334 970.469 377.008 970.469 398.929ZM937.871 400.1C937.871 386.086 934.72 374.533 928.386 365.425C921.467 355.958 912.177 351.216 900.531 351.216C892.637 351.216 885.463 353.857 879.054 359.064C872.631 364.315 868.429 371.172 866.463 379.664C865.585 382.84 865.086 386.109 864.977 389.402V413.423C864.977 423.881 868.189 432.719 874.612 439.951C881.036 447.153 889.38 450.769 899.646 450.769C911.697 450.769 921.077 446.102 927.786 436.845C934.509 427.557 937.871 415.314 937.871 400.1ZM1136.11 398.929C1136.11 423.416 1129.46 442.772 1116.15 456.98C1104.22 469.629 1089.42 475.946 1071.74 475.946C1052.67 475.946 1038.95 469.149 1030.62 455.525V531.071H998.624V376.033C998.624 360.654 998.219 344.885 997.438 328.71H1025.58L1027.36 351.531H1027.96C1038.62 334.337 1054.81 325.739 1076.56 325.739C1093.54 325.739 1107.72 332.446 1119.09 345.875C1130.41 359.334 1136.11 377.008 1136.11 398.929ZM1103.5 400.1C1103.5 386.086 1100.33 374.533 1094 365.425C1087.08 355.958 1077.82 351.216 1066.18 351.216C1058.28 351.216 1051.11 353.857 1044.67 359.064C1038.25 364.315 1034.06 371.172 1032.09 379.664C1031.12 383.625 1030.59 386.851 1030.59 389.402V413.423C1030.59 423.881 1033.82 432.719 1040.21 439.951C1046.63 447.138 1054.98 450.769 1065.28 450.769C1077.34 450.769 1086.72 446.102 1093.42 436.845C1100.14 427.557 1103.5 415.314 1103.5 400.1ZM1321.31 416.679C1321.31 433.679 1315.37 447.498 1303.56 458.166C1290.56 469.809 1272.42 475.646 1249.15 475.646C1227.66 475.646 1210.43 471.504 1197.44 463.207L1204.84 436.545C1218.87 444.857 1234.28 448.998 1251.06 448.998C1263.13 448.998 1272.51 446.268 1279.2 440.851C1285.91 435.42 1289.3 428.158 1289.3 419.095C1289.3 410.978 1286.49 404.181 1280.99 398.644C1275.45 393.123 1266.29 387.976 1253.43 383.25C1218.46 370.212 1200.96 351.141 1200.96 326.054C1200.96 309.67 1207.15 296.256 1219.48 285.768C1231.82 275.296 1248.18 270.059 1268.53 270.059C1286.7 270.059 1301.85 273.225 1313.87 279.542L1305.84 305.619C1294.52 299.497 1281.75 296.436 1267.46 296.436C1256.18 296.436 1247.32 299.212 1240.99 304.734C1235.66 309.67 1232.96 315.687 1232.96 322.829C1232.96 330.706 1236.04 337.248 1242.16 342.379C1247.47 347.105 1257.17 352.252 1271.19 357.773C1288.39 364.705 1301.02 372.777 1309.11 382.05C1317.26 391.322 1321.31 402.891 1321.31 416.679ZM1427.38 352.717H1392.11V422.621C1392.11 440.401 1398.32 449.268 1410.78 449.268C1416.49 449.268 1421.24 448.788 1424.99 447.783L1425.87 472.075C1419.57 474.43 1411.27 475.616 1400.99 475.616C1388.35 475.616 1378.48 471.76 1371.35 464.047C1364.25 456.335 1360.68 443.417 1360.68 425.232V352.657H1339.67V328.65H1360.68V302.288L1392.11 292.805V328.65H1427.38V352.717ZM1586.19 399.515C1586.19 421.646 1579.86 439.816 1567.22 454.025C1554 468.654 1536.41 475.946 1514.48 475.946C1493.32 475.946 1476.5 468.939 1463.95 454.94C1451.4 440.911 1445.13 423.236 1445.13 401.915C1445.13 379.604 1451.61 361.329 1464.54 347.12C1477.49 332.896 1494.93 325.784 1516.85 325.784C1537.99 325.784 1554.96 332.806 1567.81 346.82C1580.08 360.414 1586.19 377.969 1586.19 399.515ZM1553.02 400.25C1553.02 387.061 1550.17 375.748 1544.45 366.281C1537.74 354.847 1528.14 349.131 1515.7 349.131C1502.88 349.131 1493.05 354.847 1486.36 366.281C1480.62 375.748 1477.77 387.256 1477.77 400.85C1477.77 414.054 1480.62 425.397 1486.36 434.834C1493.28 446.268 1502.93 451.984 1515.43 451.984C1527.66 451.984 1537.25 446.147 1544.18 434.549C1550.07 424.857 1553.02 413.469 1553.02 400.25ZM1690.24 356.843C1686.91 356.242 1683.54 355.946 1680.16 355.958C1668.9 355.958 1660.2 360.189 1654.07 368.711C1648.76 376.213 1646.09 385.696 1646.09 397.144V472.69H1614.09V374.053C1614.12 358.938 1613.81 343.826 1613.16 328.725H1641.03L1642.2 356.273H1643.09C1646.48 346.805 1651.79 339.168 1659.09 333.452C1665.76 328.456 1673.87 325.751 1682.21 325.739C1685.17 325.739 1687.84 325.949 1690.21 326.325L1690.24 356.843ZM1833.34 393.888C1833.43 398.751 1833.03 403.61 1832.17 408.397H1736.18C1736.54 422.621 1741.19 433.514 1750.11 441.016C1758.2 447.708 1768.66 451.069 1781.51 451.069C1795.72 451.069 1808.69 448.818 1820.35 444.272L1825.36 466.463C1811.73 472.405 1795.64 475.36 1777.08 475.36C1754.75 475.36 1737.22 468.789 1724.46 455.675C1711.73 442.547 1705.36 424.902 1705.36 402.801C1705.36 381.105 1711.28 363.025 1723.16 348.606C1735.58 333.211 1752.38 325.514 1773.51 325.514C1794.26 325.514 1809.98 333.211 1820.65 348.606C1829.1 360.804 1833.34 375.928 1833.34 393.888ZM1802.83 385.591C1803.06 376.093 1800.96 367.916 1796.62 360.999C1791.08 352.087 1782.56 347.645 1771.14 347.645C1760.68 347.645 1752.15 351.982 1745.67 360.684C1740.34 367.601 1737.17 375.913 1736.2 385.561L1802.83 385.591Z" fill="white"/>
<path d="M678.531 202.421C669.631 202.421 661.932 201.986 655.524 201.251V104.714C664.487 103.33 673.544 102.648 682.613 102.673C719.308 102.673 736.207 120.723 736.207 150.147C736.207 184.086 716.247 202.421 678.531 202.421ZM683.904 115.052C678.951 115.052 674.734 115.352 671.237 116.072V189.457C673.128 189.757 676.76 189.892 681.863 189.892C705.906 189.892 719.593 176.209 719.593 150.582C719.593 127.73 707.212 115.052 683.904 115.052ZM788.871 203.156C768.19 203.156 754.787 187.717 754.787 166.756C754.787 144.91 768.475 129.336 790.041 129.336C810.422 129.336 824.125 144.04 824.125 165.601C824.125 187.717 810.002 203.156 788.871 203.156ZM789.471 140.829C778.11 140.829 770.831 151.452 770.831 166.306C770.831 180.875 778.26 191.498 789.321 191.498C800.382 191.498 807.811 180.14 807.811 166.006C807.811 151.602 800.532 140.829 789.471 140.829ZM942.058 130.791L919.922 201.551H905.499L896.329 170.822C894.049 163.306 892.15 155.679 890.641 147.971H890.341C889.185 155.683 886.994 163.41 884.667 170.822L874.912 201.551H860.339L839.508 130.791H855.672L863.686 164.43C865.577 172.443 867.168 180.005 868.489 187.147H868.789C869.945 181.19 871.836 173.748 874.612 164.58L884.667 130.806H897.484L907.105 163.86C909.431 171.872 911.322 179.735 912.793 187.162H913.213C914.233 179.885 915.839 172.158 918.015 163.86L926.615 130.806L942.058 130.791ZM1023.55 201.551H1007.82V160.919C1007.82 148.406 1003.02 142.134 993.551 142.134C984.231 142.134 977.823 150.147 977.823 159.464V201.551H962.094V151.017C962.094 144.76 961.944 138.053 961.509 130.776H975.346L976.082 141.699H976.517C980.749 134.137 989.334 129.336 998.954 129.336C1013.81 129.336 1023.57 140.694 1023.57 159.179L1023.55 201.551ZM1066.93 201.551H1051.18V98.3223H1066.93V201.551ZM1124.27 203.156C1103.61 203.156 1090.19 187.717 1090.19 166.756C1090.19 144.91 1103.88 129.336 1125.43 129.336C1145.82 129.336 1159.51 144.04 1159.51 165.601C1159.53 187.717 1145.39 203.156 1124.27 203.156ZM1124.86 140.829C1113.5 140.829 1106.22 151.452 1106.22 166.306C1106.22 180.875 1113.66 191.498 1124.69 191.498C1135.77 191.498 1143.18 180.14 1143.18 166.006C1143.2 151.602 1135.93 140.829 1124.86 140.829ZM1221.52 201.551L1220.38 193.403H1219.96C1215.16 199.96 1208.15 203.156 1199.27 203.156C1186.59 203.156 1177.58 194.274 1177.58 182.33C1177.58 164.866 1192.72 155.833 1218.94 155.833V154.528C1218.94 145.21 1214.01 140.544 1204.25 140.544C1197.27 140.544 1191.15 142.299 1185.76 145.795L1182.56 135.457C1189.11 131.376 1197.27 129.336 1206.86 129.336C1225.35 129.336 1234.69 139.088 1234.69 158.609V184.671C1234.69 191.813 1235 197.35 1235.71 201.566L1221.52 201.551ZM1219.36 166.306C1201.89 166.306 1193.13 170.537 1193.13 180.575C1193.13 188.002 1197.65 191.633 1203.92 191.633C1211.92 191.633 1219.36 185.526 1219.36 177.229V166.306ZM1311.06 201.551L1310.33 190.193H1309.89C1305.37 198.775 1297.78 203.156 1287.17 203.156C1270.11 203.156 1257.47 188.152 1257.47 167.041C1257.47 144.91 1270.57 129.321 1288.46 129.321C1297.93 129.321 1304.64 132.517 1308.42 138.938H1308.74V98.3223H1324.48V182.48C1324.48 189.322 1324.64 195.729 1325.07 201.551H1311.06ZM1308.74 159.914C1308.74 150.011 1302.18 141.564 1292.17 141.564C1280.51 141.564 1273.38 151.902 1273.38 166.456C1273.38 180.725 1280.78 190.493 1291.85 190.493C1301.74 190.493 1308.74 181.895 1308.74 171.707V159.914ZM1424.3 203.156C1403.63 203.156 1390.23 187.717 1390.23 166.756C1390.23 144.91 1403.92 129.336 1425.47 129.336C1445.87 129.336 1459.55 144.04 1459.55 165.601C1459.57 187.717 1445.45 203.156 1424.3 203.156ZM1424.88 140.829C1413.54 140.829 1406.26 151.452 1406.26 166.306C1406.26 180.875 1413.69 191.498 1424.73 191.498C1435.81 191.498 1443.22 180.14 1443.22 166.006C1443.25 151.602 1435.98 140.829 1424.88 140.829ZM1544.14 201.551H1528.39V160.919C1528.39 148.406 1523.59 142.134 1514.12 142.134C1504.8 142.134 1498.41 150.147 1498.41 159.464V201.551H1482.67V151.017C1482.67 144.76 1482.52 138.053 1482.08 130.776H1495.92L1496.65 141.699H1497.09C1501.31 134.137 1509.9 129.321 1519.51 129.321C1534.37 129.321 1544.14 140.679 1544.14 159.164V201.551ZM1649.96 142.584H1632.66V176.944C1632.66 185.691 1635.69 190.057 1641.81 190.057C1644.59 190.057 1646.91 189.757 1648.79 189.322L1649.23 201.266C1646.18 202.436 1642.1 203.021 1637.02 203.021C1624.63 203.021 1617.21 196.179 1617.21 178.264V142.584H1606.89V130.791H1617.21V117.828L1632.66 113.161V130.776H1649.96V142.584ZM1733.23 201.551H1717.51V161.22C1717.51 148.556 1712.72 142.149 1703.24 142.149C1695.09 142.149 1687.5 147.686 1687.5 158.894V201.551H1671.78V98.3223H1687.5V140.829H1687.81C1692.76 133.117 1699.94 129.321 1709.09 129.321C1724.07 129.321 1733.23 140.964 1733.23 159.464V201.551ZM1818.53 169.952H1771.33C1771.63 183.351 1780.5 190.913 1793.63 190.913C1800.61 190.913 1807.04 189.742 1812.71 187.567L1815.15 198.49C1808.46 201.401 1800.58 202.856 1791.41 202.856C1769.27 202.856 1756.17 188.872 1756.17 167.191C1756.17 145.495 1769.59 129.186 1789.64 129.186C1807.73 129.186 1819.07 142.584 1819.07 162.825C1819.17 165.214 1818.99 167.606 1818.53 169.952ZM1804.11 158.744C1804.11 147.821 1798.6 140.109 1788.55 140.109C1779.51 140.109 1772.37 147.971 1771.35 158.744H1804.11Z" fill="white"/>
<defs>
<linearGradient id="paint0_linear_47_514" x1="1485.18" y1="601.593" x2="1485.18" y2="-1562.3" gradientUnits="userSpaceOnUse">
<stop stop-color="#1A1A1A" stop-opacity="0.1"/>
<stop offset="0.123" stop-color="#212121" stop-opacity="0.151"/>
<stop offset="0.308" stop-color="#353535" stop-opacity="0.227"/>
<stop offset="0.532" stop-color="#575757" stop-opacity="0.318"/>
<stop offset="0.783" stop-color="#858585" stop-opacity="0.421"/>
<stop offset="1" stop-color="#B3B3B3" stop-opacity="0.51"/>
</linearGradient>
</defs>
</svg>
