<svg width="36" height="36" viewBox="0 0 36 36" fill="none" xmlns="http://www.w3.org/2000/svg">
<path d="M24.092 29.1378L12.9545 18.0003L17.753 13.2018L14.5714 10.0203L13.2159 11.3758L8.18221 16.4095C7.76039 16.8315 7.52344 17.4036 7.52344 18.0003C7.52344 18.5968 7.76039 19.1691 8.18221 19.591L20.9105 32.3193C21.3348 32.7291 21.9032 32.9559 22.4931 32.9508C23.0831 32.9455 23.6474 32.709 24.0645 32.2918C24.4817 31.8747 24.7184 31.3104 24.7235 30.7204C24.7286 30.1305 24.5018 29.5621 24.092 29.1378Z" fill="#065A9D"/>
<path d="M24.7501 5.27149C24.7501 4.67485 24.5133 4.10268 24.0915 3.68074C23.6695 3.25893 23.0973 3.02197 22.5007 3.02197C21.904 3.02197 21.3318 3.25893 20.91 3.68074L18.249 6.34165L21.4305 9.52318L24.0915 6.86224C24.5133 6.44029 24.7501 5.86813 24.7501 5.27149Z" fill="#065A9D"/>
<path d="M11.8992 6.85047L23.0367 17.988L18.2382 22.7865L21.4197 25.968L22.7752 24.6123L27.8089 19.5787C28.2307 19.1568 28.4677 18.5845 28.4677 17.988C28.4677 17.3913 28.2307 16.8192 27.8089 16.3972L15.0807 3.66897C14.6563 3.25909 14.088 3.03231 13.498 3.03744C12.9081 3.04257 12.3437 3.27919 11.9266 3.69636C11.5094 4.11352 11.2728 4.67785 11.2677 5.2678C11.2625 5.85772 11.4893 6.4261 11.8992 6.85047Z" fill="#5BC7F8"/>
<path d="M11.2383 30.7163C11.2383 31.313 11.4752 31.8851 11.897 32.307C12.319 32.7288 12.8912 32.9658 13.4878 32.9658C14.0844 32.9658 14.6566 32.7288 15.0786 32.307L17.7394 29.6462L14.558 26.4647L11.897 29.1255C11.4752 29.5475 11.2383 30.1197 11.2383 30.7163Z" fill="#5BC7F8"/>
</svg>
