<svg width="24" height="24" viewBox="0 0 24 24" fill="none" xmlns="http://www.w3.org/2000/svg">
<path d="M11.8125 2.80078H11.8008V2.8125V4.47616V4.48788H11.8125C12.8888 4.48788 13.7883 4.75123 14.4183 5.27056C15.0481 5.78962 15.4102 6.56549 15.4102 7.59375C15.4102 8.12856 15.0408 8.89921 14.4167 9.53672C13.7929 10.1738 12.9169 10.6758 11.9062 10.6758C11.6411 10.6758 11.3859 10.5336 11.1472 10.2962C10.9087 10.0589 10.6879 9.72759 10.4917 9.35219C10.0993 8.60146 9.80672 7.67677 9.66778 6.98208C9.45741 5.93031 9.71484 5.3082 10.1558 4.94833C10.598 4.58753 11.2274 4.48788 11.7656 4.48788H11.7773V4.47616V2.81272V2.80089L11.7655 2.80101C9.14007 2.82622 7.01953 4.96235 7.01953 7.59375C7.01953 10.2409 9.16541 12.3867 11.8125 12.3867C14.4596 12.3867 16.6055 10.2409 16.6055 7.59375C16.6055 4.94666 14.4596 2.80078 11.8125 2.80078Z" fill="url(#paint0_linear_23_151)" stroke="url(#paint1_linear_23_151)" stroke-width="0.25"/>
<path d="M6.75 11.6133H6.73828V11.625V13.2887V13.3004H6.75C7.82638 13.3004 8.72576 13.5637 9.35583 14.083C9.98559 14.6021 10.3477 15.378 10.3477 16.4062C10.3477 16.9411 9.97828 17.7117 9.35414 18.3492C8.73042 18.9863 7.85436 19.4883 6.84375 19.4883C6.57859 19.4883 6.32339 19.3461 6.08474 19.1087C5.84618 18.8714 5.62537 18.5401 5.42918 18.1647C5.03682 17.414 4.74418 16.4892 4.60524 15.7945C4.39489 14.7428 4.65233 14.1207 5.09334 13.7608C5.53549 13.4001 6.16493 13.3004 6.70312 13.3004H6.71484V13.2887V11.6252V11.6134L6.70301 11.6135C4.07757 11.6387 1.95703 13.7749 1.95703 16.4062C1.95703 19.0534 4.10291 21.1992 6.75 21.1992C9.39713 21.1992 11.543 19.0534 11.543 16.4062C11.543 13.7591 9.39713 11.6133 6.75 11.6133Z" fill="url(#paint2_linear_23_151)" stroke="url(#paint3_linear_23_151)" stroke-width="0.25"/>
<path d="M17.25 11.707H17.2383V11.7188V13.3824V13.3942H17.25C18.3263 13.3942 19.2258 13.6575 19.8558 14.1768C20.4856 14.6959 20.8477 15.4717 20.8477 16.5C20.8477 17.0348 20.4783 17.8055 19.8542 18.443C19.2304 19.0801 18.3544 19.582 17.3438 19.582C17.0786 19.582 16.8234 19.4398 16.5848 19.2024C16.3462 18.9652 16.1254 18.6338 15.9292 18.2585C15.5368 17.5077 15.2442 16.583 15.1053 15.8883C14.8949 14.8366 15.1523 14.2145 15.5933 13.8546C16.0355 13.4938 16.6649 13.3942 17.2031 13.3942H17.2148V13.3824V11.7189V11.7071L17.203 11.7072C14.5776 11.7324 12.457 13.8686 12.457 16.5C12.457 19.1471 14.6029 21.293 17.25 21.293C19.8971 21.293 22.043 19.1471 22.043 16.5C22.043 13.8529 19.8971 11.707 17.25 11.707Z" fill="url(#paint4_linear_23_151)" stroke="url(#paint5_linear_23_151)" stroke-width="0.25"/>
<defs>
<linearGradient id="paint0_linear_23_151" x1="7.03125" y1="8.25" x2="16.3594" y2="6.04688" gradientUnits="userSpaceOnUse">
<stop stop-color="#471993"/>
<stop offset="1" stop-color="#8B30BE"/>
</linearGradient>
<linearGradient id="paint1_linear_23_151" x1="16.2188" y1="5.71875" x2="7.03125" y2="8.10938" gradientUnits="userSpaceOnUse">
<stop stop-color="#8B30BE"/>
<stop offset="1" stop-color="#471993"/>
</linearGradient>
<linearGradient id="paint2_linear_23_151" x1="1.96875" y1="17.0625" x2="11.2969" y2="14.8594" gradientUnits="userSpaceOnUse">
<stop stop-color="#471993"/>
<stop offset="1" stop-color="#8B30BE"/>
</linearGradient>
<linearGradient id="paint3_linear_23_151" x1="11.1563" y1="14.5313" x2="1.96875" y2="16.9219" gradientUnits="userSpaceOnUse">
<stop stop-color="#8B30BE"/>
<stop offset="1" stop-color="#471993"/>
</linearGradient>
<linearGradient id="paint4_linear_23_151" x1="12.4687" y1="17.1563" x2="21.7969" y2="14.9531" gradientUnits="userSpaceOnUse">
<stop stop-color="#471993"/>
<stop offset="1" stop-color="#8B30BE"/>
</linearGradient>
<linearGradient id="paint5_linear_23_151" x1="21.6563" y1="14.625" x2="12.4688" y2="17.0156" gradientUnits="userSpaceOnUse">
<stop stop-color="#8B30BE"/>
<stop offset="1" stop-color="#471993"/>
</linearGradient>
</defs>
</svg>
