<svg width="24" height="24" viewBox="0 0 24 24" fill="none" xmlns="http://www.w3.org/2000/svg">
<path d="M4.89457 19.1055L0.788708 14.9997C0.30172 14.5003 0 13.7945 0 13.1046C0 12.7853 0.179973 12.2859 0.315836 12.0001L4.10587 4.10596L4.89457 19.1055Z" fill="#01579B"/>
<path d="M18.9482 4.89457L14.8423 0.788708C14.4841 0.428761 13.7378 0 13.1061 0C12.5627 0 12.0298 0.109396 11.6857 0.315836L4.10742 4.10587L18.9482 4.89457Z" fill="#40C4FF"/>
<path d="M9.78927 24.0002H19.7372V19.7373L12.316 17.3677L5.52637 19.7373L9.78927 24.0002Z" fill="#40C4FF"/>
<path d="M4.10547 16.8947C4.10547 18.1615 4.26427 18.4721 4.89418 19.1055L5.52585 19.7372H19.7367L12.7901 11.8431L4.10547 4.10596V16.8947Z" fill="#29B6F6"/>
<path d="M16.7371 4.104H4.10547L19.7367 19.7352H23.9996V9.94609L18.9462 4.89271C18.2369 4.18164 17.607 4.104 16.7371 4.104Z" fill="#01579B"/>
<path opacity="0.2" d="M5.05331 19.2626C4.42164 18.6291 4.2646 18.0045 4.2646 16.8947V4.26299L4.10756 4.10596V16.8947C4.1058 18.0045 4.1058 18.3115 5.05331 19.2626Z" fill="white"/>
<path opacity="0.2" d="M23.843 9.78906V19.5782H19.5801L19.7371 19.737H24V9.9461L23.843 9.78906Z" fill="#263238"/>
<path opacity="0.2" d="M18.9482 4.89466C18.1648 4.11125 17.5243 4.10596 16.5803 4.10596H4.10742L4.26446 4.26299H16.5803C17.0514 4.26299 18.2406 4.18359 18.9482 4.89466Z" fill="white"/>
<path opacity="0.2" d="M23.8432 9.78915L18.9486 4.89457L14.8427 0.788708C14.4845 0.428761 13.7382 0 13.1065 0C12.563 0 12.0302 0.109396 11.6861 0.315836L4.10782 4.10587L0.317789 12C0.181927 12.2876 0.00195312 12.7869 0.00195312 13.1045C0.00195312 13.7944 0.305438 14.4985 0.790661 14.9996L4.57363 18.7561C4.66362 18.8672 4.76949 18.9802 4.89476 19.1054L5.0518 19.2625L5.52467 19.7353L9.63054 23.8412L9.78757 23.9982H19.5767H19.7338V19.7353H23.9967V19.7247V9.94618L23.8432 9.78915Z" fill="url(#paint0_radial_24_1086)"/>
<defs>
<radialGradient id="paint0_radial_24_1086" cx="0" cy="0" r="1" gradientUnits="userSpaceOnUse" gradientTransform="translate(11.9993 11.9995) scale(11.9982 11.9982)">
<stop stop-color="white" stop-opacity="0.1"/>
<stop offset="1" stop-color="white" stop-opacity="0"/>
</radialGradient>
</defs>
</svg>
