<svg width="2026" height="600" viewBox="0 0 2026 600" fill="none" xmlns="http://www.w3.org/2000/svg">
<path d="M1950.5 600H75.5C34.25 600 0.5 566.25 0.5 525V75C0.5 33.75 34.25 0 75.5 0H1950.5C1991.75 0 2025.5 33.75 2025.5 75V525C2025.5 566.25 1991.75 600 1950.5 600Z" fill="black"/>
<path d="M1950.5 12C1967.21 12 1983.23 18.6375 1995.05 30.4523C2006.86 42.2671 2013.5 58.2914 2013.5 75V525C2013.5 541.709 2006.86 557.733 1995.05 569.548C1983.23 581.363 1967.21 588 1950.5 588H75.5C58.7914 588 42.7671 581.363 30.9523 569.548C19.1375 557.733 12.5 541.709 12.5 525V75C12.5 58.2914 19.1375 42.2671 30.9523 30.4523C42.7671 18.6375 58.7914 12 75.5 12H1950.5ZM1950.5 0H75.5C34.25 0 0.5 33.75 0.5 75V525C0.5 566.25 34.25 600 75.5 600H1950.5C1991.75 600 2025.5 566.25 2025.5 525V75C2025.5 33.75 1991.75 0 1950.5 0Z" fill="#A6A6A6"/>
<path d="M711.8 153.6C711.8 166.2 708.05 176.25 700.55 183.6C692.15 192.45 681.2 196.95 667.55 196.95C654.5 196.95 643.4 192.45 634.4 183.45C625.4 174.45 620.9 163.2 620.9 150C620.9 136.8 625.4 125.55 634.4 116.55C643.4 107.55 654.5 102.9 667.55 102.9C674.15 102.9 680.45 104.1 686.3 106.35C692.15 108.75 696.95 112.05 700.7 116.25L692.45 124.5C689.75 121.2 686.15 118.5 681.65 116.7C677.204 114.766 672.399 113.794 667.55 113.85C657.8 113.85 649.4 117.3 642.65 124.05C635.9 130.95 632.6 139.5 632.6 149.85C632.6 160.2 635.9 168.75 642.65 175.65C649.4 182.4 657.65 185.85 667.55 185.85C676.55 185.85 683.9 183.3 689.9 178.35C695.9 173.4 699.35 166.35 700.25 157.65H667.55V146.85H711.2C711.5 149.25 711.8 151.5 711.8 153.6ZM780.95 105V116.1H740V144.6H776.9V155.4H740V183.9H780.95V195H728.45V105H780.95ZM829.7 116.1V195H818.15V116.1H792.95V105H854.75V116.1H829.7ZM911.15 195H899.6V105H911.15V195ZM962.45 116.1V195H950.9V116.1H925.7V105H987.5V116.1H962.45ZM1117.85 150C1117.85 163.35 1113.35 174.45 1104.5 183.45C1095.5 192.45 1084.55 196.95 1071.5 196.95C1058.45 196.95 1047.5 192.45 1038.5 183.45C1029.65 174.45 1025.15 163.35 1025.15 150C1025.15 136.65 1029.65 125.55 1038.5 116.55C1047.35 107.55 1058.3 102.9 1071.5 102.9C1084.55 102.9 1095.5 107.4 1104.5 116.55C1113.5 125.7 1117.85 136.8 1117.85 150ZM1037.15 150C1037.15 160.35 1040.45 169.05 1046.9 175.8C1053.5 182.55 1061.75 186 1071.5 186C1081.25 186 1089.5 182.55 1095.95 175.8C1102.55 169.05 1105.85 160.5 1105.85 150C1105.85 139.5 1102.55 130.95 1095.95 124.2C1089.35 117.45 1081.25 114 1071.5 114C1061.75 114 1053.5 117.45 1046.9 124.2C1040.45 130.95 1037.15 139.65 1037.15 150ZM1145.6 195H1134.05V105H1148.15L1191.95 175.05H1192.4L1191.95 157.65V105H1203.5V195H1191.5L1145.75 121.65H1145.3L1145.75 139.05V195H1145.6Z" fill="white" stroke="white" stroke-width="3" stroke-miterlimit="10"/>
<path d="M1022.6 326.25C987.35 326.25 958.55 353.1 958.55 390C958.55 426.75 987.35 453.75 1022.6 453.75C1057.85 453.75 1086.65 426.75 1086.65 390C1086.65 353.1 1057.85 326.25 1022.6 326.25ZM1022.6 428.7C1003.25 428.7 986.6 412.8 986.6 390C986.6 367.05 1003.25 351.3 1022.6 351.3C1041.95 351.3 1058.6 367.05 1058.6 390C1058.6 412.8 1041.8 428.7 1022.6 428.7ZM882.8 326.25C847.55 326.25 818.75 353.1 818.75 390C818.75 426.75 847.55 453.75 882.8 453.75C918.05 453.75 946.85 426.75 946.85 390C946.85 353.1 918.05 326.25 882.8 326.25ZM882.8 428.7C863.45 428.7 846.8 412.8 846.8 390C846.8 367.05 863.45 351.3 882.8 351.3C902.15 351.3 918.8 367.05 918.8 390C918.8 412.8 902.15 428.7 882.8 428.7ZM716.6 345.9V372.9H781.4C779.45 388.05 774.35 399.3 766.7 406.95C757.25 416.4 742.55 426.75 716.75 426.75C676.85 426.75 645.65 394.65 645.65 354.75C645.65 314.85 676.85 282.75 716.75 282.75C738.2 282.75 753.95 291.15 765.5 302.1L784.55 283.05C768.35 267.6 746.9 255.75 716.6 255.75C662 255.75 616.1 300.15 616.1 354.9C616.1 409.5 662 454.05 716.6 454.05C746.15 454.05 768.35 444.45 785.75 426.3C803.6 408.45 809.15 383.25 809.15 363C809.15 356.7 808.7 350.85 807.65 346.05H716.6V345.9ZM1396.25 366.9C1391 352.65 1374.8 326.25 1341.65 326.25C1308.8 326.25 1281.5 352.05 1281.5 390C1281.5 425.7 1308.5 453.75 1344.8 453.75C1374.05 453.75 1391 435.9 1397.9 425.55L1376.15 411C1368.95 421.65 1359.05 428.7 1344.8 428.7C1330.55 428.7 1320.35 422.25 1313.9 409.35L1399.25 374.1L1396.25 366.9ZM1309.25 388.2C1308.5 363.6 1328.3 351 1342.55 351C1353.65 351 1363.1 356.55 1366.25 364.5L1309.25 388.2ZM1239.95 450H1268V262.5H1239.95V450ZM1194.05 340.5H1193C1186.7 333 1174.7 326.25 1159.4 326.25C1127.45 326.25 1098.2 354.3 1098.2 390.3C1098.2 426 1127.45 453.9 1159.4 453.9C1174.55 453.9 1186.7 447.15 1193 439.35H1193.9V448.5C1193.9 472.95 1180.85 486 1159.85 486C1142.75 486 1132.1 473.7 1127.75 463.35L1103.3 473.55C1110.35 490.5 1128.95 511.2 1159.85 511.2C1192.7 511.2 1220.45 491.85 1220.45 444.75V330.15H1193.9V340.5H1194.05ZM1161.8 428.7C1142.45 428.7 1126.25 412.5 1126.25 390.3C1126.25 367.8 1142.45 351.45 1161.8 351.45C1180.85 351.45 1195.85 367.95 1195.85 390.3C1196 412.5 1181 428.7 1161.8 428.7ZM1527.65 262.5H1460.6V450H1488.65V378.9H1527.8C1558.85 378.9 1589.3 356.4 1589.3 320.7C1589.15 285 1558.55 262.5 1527.65 262.5ZM1528.25 352.8H1488.5V288.45H1528.25C1549.25 288.45 1561.1 305.85 1561.1 320.55C1561.1 335.25 1549.25 352.8 1528.25 352.8ZM1701.35 325.95C1681.1 325.95 1660.1 334.95 1651.4 354.6L1676.3 364.95C1681.55 354.6 1691.45 351.15 1701.8 351.15C1716.2 351.15 1731.05 359.85 1731.2 375.3V377.25C1726.1 374.4 1715.3 370.05 1701.95 370.05C1675.1 370.05 1647.95 384.75 1647.95 412.2C1647.95 437.25 1669.85 453.45 1694.45 453.45C1713.2 453.45 1723.7 445.05 1730.15 435.15H1731.05V449.55H1758.05V377.7C1758.2 344.55 1733.3 325.95 1701.35 325.95ZM1697.9 428.7C1688.75 428.7 1676 424.05 1676 412.8C1676 398.4 1691.9 392.85 1705.7 392.85C1718 392.85 1723.85 395.55 1731.2 399.15C1730.16 407.269 1726.21 414.736 1720.09 420.169C1713.97 425.601 1706.09 428.632 1697.9 428.7ZM1856.6 330L1824.5 411.3H1823.6L1790.3 330H1760.15L1810.1 443.7L1781.6 506.85H1810.85L1887.8 330H1856.6ZM1604.6 450H1632.65V262.5H1604.6V450Z" fill="white"/>
<path d="M311.3 291.3L151.55 460.8V460.95C153.279 467.371 156.468 473.306 160.868 478.291C165.268 483.276 170.761 487.177 176.918 489.689C183.075 492.201 189.729 493.256 196.361 492.772C202.993 492.289 209.423 490.279 215.15 486.9L215.6 486.6L395.3 382.95L311.3 291.3Z" fill="#EA4335"/>
<path d="M472.85 262.5L472.7 262.35L395.15 217.35L307.7 295.2L395.45 382.95L472.7 338.4C479.533 334.701 485.242 329.228 489.225 322.557C493.209 315.886 495.319 308.264 495.334 300.495C495.35 292.725 493.269 285.095 489.312 278.408C485.355 271.721 479.668 266.226 472.85 262.5Z" fill="#FBBC04"/>
<path d="M151.55 139.2C150.65 142.8 150.05 146.4 150.05 150.3V449.85C150.05 453.75 150.5 457.35 151.55 460.95L316.7 295.8L151.55 139.2Z" fill="#4285F4"/>
<path d="M312.5 300L395.15 217.35L215.6 113.25C209.86 109.818 203.404 107.761 196.737 107.24C190.07 106.719 183.372 107.748 177.169 110.247C170.966 112.745 165.425 116.646 160.98 121.643C156.536 126.64 153.308 132.598 151.55 139.05L312.5 300Z" fill="#34A853"/>
</svg>
