<svg width="512" height="512" viewBox="0 0 512 512" fill="none" xmlns="http://www.w3.org/2000/svg">
<rect width="512" height="512" fill="url(#paint0_linear_161_2780)"/>
<path d="M284.454 345.592C257.784 335.686 230.351 334.162 205.204 341.02C187.678 345.593 170.913 354.737 155.673 366.167L145.004 375.311L141.956 378.359L148.815 384.456C149.577 384.456 149.577 385.218 150.339 385.98C151.863 387.504 153.387 388.266 155.673 389.79L160.245 392.838L164.817 389.028C165.579 388.266 167.103 386.742 168.627 385.98C182.343 374.549 197.584 366.929 213.586 363.119C234.161 357.785 256.259 358.547 278.358 366.929C296.647 373.787 333.986 382.17 378.945 363.119L380.469 362.357L382.755 360.071C382.755 359.309 383.517 359.309 384.279 358.547C388.089 353.975 391.899 349.403 394.947 344.068L410.188 320.446L385.803 334.162C349.988 353.975 317.221 357.785 284.454 345.592Z" fill="url(#paint1_linear_161_2780)"/>
<path d="M180.057 263.297C200.631 257.963 222.73 258.725 244.828 267.107C269.213 276.251 331.699 289.206 401.805 225.958L417.045 210.717L415.521 206.907C414.759 203.859 413.235 200.049 411.711 196.239L407.901 185.571L400.281 193.191C399.519 194.715 397.995 195.477 396.471 197.001C362.942 231.292 311.124 266.345 251.687 245.008C225.016 235.102 197.583 233.578 172.436 240.436C148.052 247.294 126.715 260.249 106.903 278.537V277.775L95.4723 289.968C95.4723 290.73 94.7104 290.73 93.9484 291.492L91.6622 293.778L92.4243 296.826C93.1863 300.636 94.7103 304.446 95.4723 308.256L100.044 320.448L107.665 310.542C108.427 309.018 109.951 308.256 110.713 306.732C126.715 292.254 148.814 271.679 180.057 263.297Z" fill="url(#paint2_linear_161_2780)"/>
<path d="M106.141 249.581C123.667 231.292 143.48 219.862 164.816 213.765C185.391 208.431 207.489 209.193 229.588 217.576C298.17 242.722 357.608 201.573 383.516 179.475L393.422 169.568L397.233 166.52L394.185 161.948C391.899 159.662 390.375 156.614 388.089 153.566L383.516 147.47L378.182 152.804C377.42 153.566 375.896 155.09 375.134 155.852C343.129 186.333 293.598 217.576 237.208 196.239C210.537 186.333 183.105 184.809 157.958 191.667C141.956 196.239 126.715 203.859 111.475 213.765L95.4723 226.72C93.9482 228.244 93.1862 229.006 91.6622 230.53L90.1383 232.054V234.34C89.3763 239.674 89.3762 245.008 88.6141 249.581L87.8521 268.631L100.806 254.915C102.331 253.391 103.855 251.105 106.141 249.581Z" fill="url(#paint3_linear_161_2780)"/>
<path d="M306.551 397.411C304.265 396.649 302.741 395.887 300.455 395.125C273.785 385.219 246.352 383.695 221.205 390.553C215.871 392.077 210.537 393.601 205.203 395.887L186.914 404.27L182.342 406.556L197.583 411.89C202.155 413.414 206.727 414.938 211.299 416.462L213.585 417.224L215.871 416.462C218.157 415.7 220.443 414.176 222.729 414.176C224.253 414.176 225.777 413.414 227.301 412.652C245.59 408.08 265.402 408.08 286.739 414.938C289.025 415.7 290.549 416.462 292.835 417.224L296.645 418.748L298.931 417.986C304.265 416.462 310.362 414.938 314.934 412.652L336.27 405.032L314.172 399.698C311.886 398.935 308.837 398.174 306.551 397.411Z" fill="url(#paint4_linear_161_2780)"/>
<path d="M423.14 239.675L411.709 251.105C410.185 252.629 408.661 254.153 407.137 255.677C375.894 285.396 325.601 317.401 269.211 296.064C242.541 286.158 215.108 284.634 189.961 291.492C166.339 298.351 145.002 310.543 125.951 328.831L116.045 339.5L112.997 343.31L116.045 347.882C118.331 350.93 119.855 353.216 121.379 356.264L125.951 363.122L131.286 356.264C132.048 355.502 133.572 353.978 134.334 353.216C152.622 333.403 172.435 321.211 195.295 315.115C215.87 309.781 237.968 310.543 260.067 318.925C279.118 325.783 298.93 328.069 318.743 325.783C353.796 321.973 388.849 302.161 414.758 280.062C416.282 278.538 417.805 277.776 419.329 276.252L421.616 273.966V271.68C421.616 267.108 422.378 261.774 422.378 257.202L423.14 239.675Z" fill="url(#paint5_linear_161_2780)"/>
<path d="M133.575 169.57C138.147 167.284 143.481 165.76 148.053 164.236C168.628 158.902 190.727 159.664 212.825 168.046C227.304 173.38 241.782 175.666 257.784 175.666C289.789 175.666 321.794 164.236 351.513 142.138L366.753 129.945L359.895 124.611C357.609 122.325 354.561 120.039 351.513 118.515L346.941 115.467L343.13 118.515C341.606 119.277 340.844 120.801 339.32 121.563C298.933 152.044 258.546 160.426 220.445 145.948C193.013 136.041 165.58 133.755 138.147 142.138C135.861 142.9 133.575 143.662 130.527 144.424L129.003 145.186L126.717 147.472C126.717 148.234 125.955 148.234 125.193 148.996C122.145 153.568 118.334 157.378 115.286 161.95L100.808 184.049L124.431 171.856C128.241 171.856 131.289 170.332 133.575 169.57Z" fill="url(#paint6_linear_161_2780)"/>
<path d="M196.059 117.75L198.345 118.512C208.251 122.322 223.492 126.132 242.542 126.132C262.355 126.132 281.406 121.56 300.456 113.94L324.079 102.509L308.076 97.1753C303.504 95.6513 298.932 94.1273 293.598 93.3652H291.312L289.026 94.1271C286.74 94.8891 284.453 96.4133 282.167 97.1753C259.307 105.558 236.446 107.082 214.348 100.985C212.062 100.223 209.776 99.4613 207.489 98.6992L205.203 97.9372L202.917 98.6992C198.345 100.223 193.773 101.747 189.201 104.033L171.674 111.654L189.963 116.988C191.487 116.226 193.773 116.988 196.059 117.75Z" fill="url(#paint7_linear_161_2780)"/>
<defs>
<linearGradient id="paint0_linear_161_2780" x1="256" y1="0" x2="256" y2="512" gradientUnits="userSpaceOnUse">
<stop stop-color="#FFE97A"/>
<stop offset="1" stop-color="#FFDD2D"/>
</linearGradient>
<linearGradient id="paint1_linear_161_2780" x1="261.749" y1="93.3652" x2="261.749" y2="656.73" gradientUnits="userSpaceOnUse">
<stop stop-color="#272727"/>
<stop offset="1" stop-color="#272727" stop-opacity="0.8"/>
</linearGradient>
<linearGradient id="paint2_linear_161_2780" x1="261.749" y1="93.3652" x2="261.749" y2="656.73" gradientUnits="userSpaceOnUse">
<stop stop-color="#272727"/>
<stop offset="1" stop-color="#272727" stop-opacity="0.8"/>
</linearGradient>
<linearGradient id="paint3_linear_161_2780" x1="261.749" y1="93.3652" x2="261.749" y2="656.73" gradientUnits="userSpaceOnUse">
<stop stop-color="#272727"/>
<stop offset="1" stop-color="#272727" stop-opacity="0.8"/>
</linearGradient>
<linearGradient id="paint4_linear_161_2780" x1="261.749" y1="93.3652" x2="261.749" y2="656.73" gradientUnits="userSpaceOnUse">
<stop stop-color="#272727"/>
<stop offset="1" stop-color="#272727" stop-opacity="0.8"/>
</linearGradient>
<linearGradient id="paint5_linear_161_2780" x1="261.749" y1="93.3652" x2="261.749" y2="656.73" gradientUnits="userSpaceOnUse">
<stop stop-color="#272727"/>
<stop offset="1" stop-color="#272727" stop-opacity="0.8"/>
</linearGradient>
<linearGradient id="paint6_linear_161_2780" x1="261.749" y1="93.3652" x2="261.749" y2="656.73" gradientUnits="userSpaceOnUse">
<stop stop-color="#272727"/>
<stop offset="1" stop-color="#272727" stop-opacity="0.8"/>
</linearGradient>
<linearGradient id="paint7_linear_161_2780" x1="261.749" y1="93.3652" x2="261.749" y2="656.73" gradientUnits="userSpaceOnUse">
<stop stop-color="#272727"/>
<stop offset="1" stop-color="#272727" stop-opacity="0.8"/>
</linearGradient>
</defs>
</svg>
