<svg width="1024" height="1024" viewBox="0 0 1024 1024" fill="none" xmlns="http://www.w3.org/2000/svg">
<rect width="1024" height="1024" fill="white"/>
<path d="M751.154 626.561L377.052 252.459C324.331 199.739 238.854 199.739 186.133 252.459L137.459 301.133C84.7386 353.854 84.7386 439.331 137.459 492.052L416.102 770.695C468.823 823.415 554.3 823.415 607.021 770.694L751.154 626.561Z" fill="#047B68"/>
<path d="M274.056 627.024L647.805 253.275C700.331 200.75 785.492 200.749 838.017 253.275L886.691 301.949C939.216 354.474 939.216 439.635 886.691 492.16L608.048 770.804C555.522 823.329 470.361 823.329 417.836 770.804L274.056 627.024Z" fill="#69A84F" stroke="#69A84F"/>
</svg>
